<svg width="52" height="53" viewBox="0 0 52 53" fill="none" xmlns="http://www.w3.org/2000/svg">
<g clip-path="url(#clip0_2149_1135)">
<path d="M33.5833 15.4583H47.6667V11.0417C47.6667 8.60256 45.7264 6.625 43.3333 6.625H33.5833V15.4583Z" fill="#F16814"/>
<path d="M43.3333 6.625H15.1667C12.7736 6.625 10.8333 8.60256 10.8333 11.0417V41.9583C10.8333 44.3974 12.7736 46.375 15.1667 46.375H34.6667C37.0598 46.375 39 44.3974 39 41.9583V11.0417C39 8.60256 40.9403 6.625 43.3333 6.625Z" fill="#FFE9E3"/>
<path d="M34.6667 46.375H8.66668C6.27359 46.375 4.33334 44.3974 4.33334 41.9583V38.6458H30.3333V41.9583C30.3333 44.3974 32.2736 46.375 34.6667 46.375ZM17.3333 15.4583H32.5V17.6666H17.3333V15.4583ZM17.3333 20.9791H28.1667V23.1875H17.3333V20.9791ZM17.3333 26.5H32.5V28.7083H17.3333V26.5ZM17.3333 32.0208H28.1667V34.2291H17.3333V32.0208Z" fill="#F16814"/>
<g clip-path="url(#clip1_2149_1135)">
<path d="M26.8119 39.0677C26.8119 44.9586 31.6147 49.7214 37.5549 49.7214C43.4952 49.7214 48.298 44.9586 48.298 39.0677C48.298 33.1768 43.4952 28.414 37.5549 28.414C31.6147 28.414 26.8119 33.1768 26.8119 39.0677Z" fill="white"/>
<path d="M37.5549 51.6015C30.6035 51.6015 24.916 45.9613 24.916 39.0677C24.916 32.1741 30.6035 26.5339 37.5549 26.5339C40.5251 26.5339 43.432 27.5993 45.707 29.542L44.064 31.4221C42.2945 29.8554 39.9563 29.0407 37.5549 29.0407C31.9938 29.0407 27.4438 33.5529 27.4438 39.0677C27.4438 44.5826 31.9938 49.0947 37.5549 49.0947V51.6015Z" fill="#DCEDC8"/>
<path d="M37.5549 51.6015C30.6035 51.6015 24.916 45.9613 24.916 39.0677C24.916 36.1223 25.9904 33.2395 27.9494 30.9834L29.8452 32.6128C28.2654 34.3675 27.4438 36.6863 27.4438 39.0677C27.4438 44.5826 31.9938 49.0947 37.5549 49.0947C43.116 49.0947 47.666 44.5826 47.666 39.0677C47.666 33.5529 43.116 29.0407 37.5549 29.0407V26.5339C44.5063 26.5339 50.1938 32.1741 50.1938 39.0677C50.1938 45.9613 44.5063 51.6015 37.5549 51.6015Z" fill="#7CB342"/>
<path d="M39.4508 31.5474L34.3952 27.7873L39.4508 24.0272V31.5474Z" fill="#7CB342"/>
<path d="M33.7633 33.4275L34.9008 32.8635L38.1237 38.817L36.9862 39.381L33.7633 33.4275Z" fill="black"/>
<path d="M37.0494 38.5663L38.1237 39.6317L34.8376 42.8278L33.7633 41.7625L37.0494 38.5663Z" fill="black"/>
<path d="M36.291 39.0677C36.291 39.7571 36.8598 40.3211 37.5549 40.3211C38.2501 40.3211 38.8188 39.7571 38.8188 39.0677C38.8188 38.3784 38.2501 37.8143 37.5549 37.8143C36.8598 37.8143 36.291 38.3784 36.291 39.0677Z" fill="black"/>
<path d="M36.923 39.0677C36.923 39.4437 37.1758 39.6944 37.5549 39.6944C37.9341 39.6944 38.1869 39.4437 38.1869 39.0677C38.1869 38.6917 37.9341 38.441 37.5549 38.441C37.1758 38.441 36.923 38.6917 36.923 39.0677Z" fill="#8BC34A"/>
</g>
</g>
<defs>
<clipPath id="clip0_2149_1135">
<rect width="52" height="53" fill="white"/>
</clipPath>
<clipPath id="clip1_2149_1135">
<rect width="30.3333" height="30.0811" fill="white" transform="translate(22.3883 24.0272)"/>
</clipPath>
</defs>
</svg>
