<svg width="32" height="32" viewBox="0 0 32 32" fill="none" xmlns="http://www.w3.org/2000/svg">
<path d="M15.1537 0.341858C14.827 0.341858 14.5454 0.575608 14.4843 0.899671L14.1231 2.87592C13.7831 2.98217 13.4537 3.11498 13.1349 3.27701L11.512 2.10561C11.2437 1.9117 10.8745 1.93826 10.6381 2.17467L9.18509 3.60639C8.95134 3.83748 8.91681 4.20405 9.1054 4.47498L10.2449 6.12451C10.0802 6.44326 9.94212 6.77264 9.83056 7.10998L7.85431 7.42873C7.52759 7.48186 7.28587 7.76342 7.28321 8.09545L7.26993 10.1355C7.26727 10.4648 7.50368 10.749 7.82774 10.8075L9.80931 11.1687C9.91556 11.5061 10.051 11.8328 10.2104 12.1489L9.03368 13.7798C8.83978 14.0481 8.86634 14.42 9.10009 14.6564L10.5345 16.1067C10.7656 16.3405 11.1321 16.375 11.4031 16.1864L13.0712 15.0362C13.3899 15.1983 13.7167 15.3337 14.0513 15.4426L14.3887 17.4428C14.4445 17.7695 14.726 18.0086 15.0554 18.0112L17.0954 18.0219H17.0981C17.4301 18.0219 17.7143 17.7828 17.7701 17.4561L18.1074 15.4586C18.4395 15.3523 18.7635 15.2195 19.0743 15.0601L20.7345 16.2395C21.0027 16.4308 21.3693 16.4015 21.6057 16.1705L23.056 14.7361C23.2924 14.5023 23.3243 14.1305 23.1331 13.8595L21.9563 12.2073C22.1184 11.8965 22.2538 11.5751 22.3627 11.2431L24.3709 10.9031C24.6976 10.8473 24.9367 10.5658 24.9393 10.2364L24.9499 8.19639C24.9526 7.86436 24.7135 7.58014 24.3842 7.52436L22.392 7.18701C22.2884 6.85233 22.1529 6.52561 21.9962 6.20951L23.1676 4.55733C23.3588 4.28905 23.3296 3.91983 23.0985 3.68608L21.6668 2.23576C21.4304 1.9967 21.0585 1.96748 20.7876 2.15873L19.154 3.32217C18.8406 3.15748 18.5165 3.01936 18.1818 2.91045L17.8631 0.926233C17.8099 0.599514 17.5284 0.357796 17.1963 0.355139L15.1563 0.341858H15.1537ZM16.0834 6.48311C16.7873 6.48311 17.4912 6.75139 18.0251 7.29326C19.0849 8.36639 19.077 10.0956 18.0038 11.1555C17.4726 11.6814 16.7793 11.9444 16.086 11.9444C15.3795 11.9444 14.6756 11.6734 14.1416 11.1342C13.0818 10.0611 13.0924 8.33186 14.1656 7.26936C14.6968 6.74342 15.3901 6.48311 16.0834 6.48311ZM8.91681 18.0219C7.33634 18.0219 6.58993 18.3247 5.80102 18.6461L5.44243 18.7895C3.80087 19.427 0.974619 20.7578 0.855087 20.8162C0.515087 20.9756 0.368994 21.3794 0.528369 21.7194C0.6904 22.0594 3.71587 28.7717 3.87259 29.0161C4.07446 29.3322 4.49415 29.4225 4.81024 29.2206L6.48899 28.1475C7.19024 27.7065 7.46384 27.5923 8.47056 28.105L9.82524 28.7956C11.3579 29.5765 13.459 30.647 14.1231 30.9631C15.1218 31.4412 15.9532 31.6219 16.6651 31.6219C17.8976 31.6219 18.7662 31.0826 19.5206 30.6178C19.6826 30.5169 19.8446 30.4159 20.0093 30.3229C21.1621 29.6669 29.2212 24.4048 30.0659 23.8178C31.0567 23.1298 31.6171 22.402 31.7287 21.6583C31.8057 21.1509 31.726 20.6515 31.1337 20.2531C30.3581 19.7325 29.1043 20.5161 29.1043 20.5161L22.7824 24.6651C22.4424 25.81 21.3773 26.8619 19.1699 26.8619H15.5999C14.1841 26.8619 12.2849 26.4475 11.4376 26.2456C11.419 26.2403 11.1773 26.1819 11.1773 26.1819C10.8851 26.1048 10.6699 25.8392 10.6699 25.5231C10.6699 25.1486 10.9754 24.8431 11.3499 24.8431C11.4163 24.8431 11.5385 24.8697 11.5385 24.8697C12.1601 25.0237 14.1921 25.5019 15.5999 25.5019H19.1699C20.7318 25.5019 21.5499 24.8644 21.5499 23.8019C21.5499 22.827 20.7743 22.1019 19.1699 22.1019C17.8445 22.1019 16.2799 21.8575 14.7606 21.4458C13.7565 21.1748 12.9198 19.0631 11.0949 18.3247C10.9435 18.2636 10.2529 18.0219 8.91681 18.0219ZM22.6124 18.0351C21.7492 18.0351 20.8806 18.3672 20.3945 18.6514C20.2882 18.7178 18.5324 19.8095 17.2415 20.6144C17.8418 20.6914 18.474 20.7419 19.1699 20.7419C19.5843 20.7419 19.9456 20.7923 20.2882 20.8667L23.8981 18.6275C23.9777 18.5744 24.0867 18.5159 24.2088 18.4548C23.8104 18.2211 23.2845 18.0351 22.6124 18.0351ZM26.6552 18.9595C26.5543 18.9595 26.4481 18.9648 26.3338 18.9755C25.9009 19.0153 25.4042 19.2969 25.4042 19.2969L21.7916 21.5361C22.3096 21.9425 22.639 22.4658 22.7931 23.0289L26.9182 20.3248L28.0949 19.5519C28.0338 19.4828 27.9648 19.4164 27.8877 19.3526C27.8771 19.342 27.8665 19.334 27.8532 19.3261C27.7788 19.265 27.6885 19.2092 27.5929 19.1587C27.5743 19.1508 27.5557 19.1428 27.5345 19.1348C27.4335 19.087 27.3193 19.0472 27.1918 19.018C27.1706 19.0126 27.1467 19.01 27.1254 19.0047C26.9873 18.9781 26.8359 18.9595 26.6632 18.9595C26.6606 18.9595 26.6579 18.9595 26.6552 18.9595Z" fill="#DCDAE0"/>
</svg>
