<svg width="25" height="20" viewBox="0 0 25 20" fill="none" xmlns="http://www.w3.org/2000/svg">
<path d="M1.45322 19.9151H2.65655C3.42791 19.9151 4.02443 19.3185 4.02443 18.5575V16.8399C6.30767 16.9839 9.60911 17.0867 12.2523 17.0867C14.8955 17.0867 18.2073 16.9839 20.4905 16.8399V18.5575C20.4905 19.3185 21.0767 19.9151 21.8481 19.9151H23.0617C23.8331 19.9151 24.4193 19.3185 24.4193 18.5575V12.6334C24.4193 10.8952 24.0696 9.92847 23.1234 8.69429L22.2492 7.57324C21.8789 5.72196 21.1899 3.77812 20.8402 3.01704C20.2848 1.85485 19.2255 1.16577 17.8576 0.980642C17.1685 0.888078 14.9161 0.836654 12.2523 0.836654C9.59883 0.836654 7.34644 0.898363 6.65736 0.980642C5.28947 1.1452 4.21984 1.85485 3.67475 3.01704C3.31478 3.77812 2.63598 5.72196 2.25544 7.57324L1.39151 8.69429C0.435016 9.92847 0.0853312 10.8952 0.0853312 12.6334V18.5575C0.0853312 19.3185 0.681853 19.9151 1.45322 19.9151ZM4.33298 6.70931C4.56953 5.58826 5.07349 4.11752 5.41289 3.521C5.69058 3.03761 5.98884 2.82163 6.54422 2.74964C7.32587 2.64679 9.0743 2.57479 12.2523 2.57479C15.4406 2.57479 17.1891 2.62622 17.9604 2.74964C18.5158 2.83192 18.8038 3.03761 19.0918 3.521C19.4414 4.10724 19.9145 5.58826 20.1819 6.70931C20.2745 7.08985 20.11 7.23384 19.7191 7.21327C18.0118 7.10013 15.9754 6.99728 12.2523 6.99728C8.53949 6.99728 6.50308 7.10013 4.7958 7.21327C4.39469 7.23384 4.24041 7.08985 4.33298 6.70931ZM4.83694 14.3098C3.90101 14.3098 3.18107 13.5899 3.18107 12.654C3.18107 11.7077 3.90101 10.9981 4.83694 10.9981C5.77286 10.9981 6.4928 11.7077 6.4928 12.654C6.4928 13.5899 5.77286 14.3098 4.83694 14.3098ZM19.6677 14.3098C18.7318 14.3098 18.0221 13.5899 18.0221 12.654C18.0221 11.7077 18.7318 10.9981 19.6677 10.9981C20.6139 10.9981 21.3236 11.7077 21.3236 12.654C21.3236 13.5899 20.6139 14.3098 19.6677 14.3098ZM9.53712 13.8984C8.82746 13.8984 8.34407 13.415 8.34407 12.7054C8.34407 12.006 8.82746 11.5226 9.53712 11.5226H14.9778C15.6772 11.5226 16.1606 12.006 16.1606 12.7054C16.1606 13.415 15.6772 13.8984 14.9778 13.8984H9.53712Z" fill="#F7F7F6"/>
</svg>
