<svg width="30" height="30" viewBox="0 0 30 30" fill="none" xmlns="http://www.w3.org/2000/svg">
<rect x="0.637817" y="0.58667" width="28.7228" height="28.7228" rx="14.3614" fill="#EBEBEB"/>
<path d="M10.0837 24.1044C10.266 24.24 10.467 24.289 10.6867 24.2516C10.9111 24.2142 11.1472 24.1044 11.395 23.9221L14.9924 21.2784L18.5967 23.9221C18.8445 24.1044 19.0782 24.2142 19.298 24.2516C19.5224 24.289 19.7257 24.24 19.908 24.1044C20.0857 23.9688 20.1932 23.7888 20.2306 23.5644C20.268 23.3447 20.2376 23.0899 20.1395 22.8001L18.7159 18.5716L22.3484 15.97C22.6008 15.7877 22.7761 15.5983 22.8743 15.402C22.9771 15.201 22.9912 14.9929 22.9164 14.7779C22.8462 14.5675 22.713 14.4109 22.5167 14.3081C22.3203 14.2052 22.0655 14.1561 21.7523 14.1608L17.2994 14.1888L15.946 9.93231C15.8525 9.63779 15.7263 9.41339 15.5674 9.25912C15.4084 9.10017 15.2167 9.0207 14.9924 9.0207C14.7726 9.0207 14.5833 9.10017 14.4243 9.25912C14.2654 9.41339 14.1392 9.63779 14.0457 9.93231L12.6923 14.1888L8.23239 14.1608C7.92385 14.1561 7.6714 14.2052 7.47505 14.3081C7.27871 14.4109 7.14547 14.5675 7.07535 14.7779C7.00055 14.9929 7.01224 15.201 7.11041 15.402C7.21326 15.5983 7.39091 15.7877 7.64335 15.97L11.2758 18.5716L9.85226 22.8001C9.75409 23.0899 9.7237 23.3447 9.7611 23.5644C9.7985 23.7888 9.90602 23.9688 10.0837 24.1044Z" fill="#F37020"/>
</svg>
