<svg width="25" height="32" viewBox="0 0 25 32" fill="none" xmlns="http://www.w3.org/2000/svg">
<path d="M8.86386 0.889954V2.60988C8.7946 2.57518 8.74307 2.55144 8.66862 2.51292C8.33542 2.34156 7.96026 2.24995 7.58355 2.24995C6.27114 2.24995 5.20355 3.31755 5.20355 4.62995C5.20355 4.69143 5.21228 4.7514 5.21683 4.81191C5.18378 4.8105 5.15167 4.79995 5.11855 4.79995C3.80887 4.79995 2.74386 5.86755 2.74386 7.17995C2.74386 7.49658 2.80814 7.80013 2.92183 8.08042C2.02558 8.42117 1.38386 9.28361 1.38386 10.2997C1.38386 10.8354 1.56213 11.3354 1.87128 11.7407C1.1754 12.1566 0.703857 12.9103 0.703857 13.7781C0.703857 14.6566 1.17817 15.4426 1.943 15.8606L1.51534 16.2763C1.00738 16.7237 0.703857 17.4106 0.703857 18.1144C0.703857 19.1456 1.36655 20.0172 2.28565 20.347L2.21659 20.4147C1.68755 20.8676 1.38386 21.5267 1.38386 22.2223C1.38386 23.4338 2.29672 24.4261 3.46901 24.5731C3.44424 24.7077 3.42386 24.8431 3.42386 24.9768C3.42386 26.2892 4.49146 27.3568 5.80386 27.3568C5.93224 27.3568 6.05259 27.3448 6.16909 27.3263C6.2988 28.517 7.29915 29.45 8.52386 29.45C8.63942 29.45 8.7516 29.4328 8.86386 29.4167V30.81H10.2239V28.7328C10.235 28.7213 10.2389 28.7063 10.2491 28.6942C10.6069 28.3499 13.1407 25.9058 15.3265 23.5371C15.9528 22.8585 17.0287 21.6797 17.6733 20.9725C18.131 20.4707 18.3839 19.8197 18.3839 19.1397V17.21C18.3839 16.7448 18.1493 16.318 17.757 16.0691L14.9453 14.2788C14.4687 13.9796 14.2313 13.4491 14.3238 12.8935C14.4101 12.3754 14.8355 11.9275 15.3584 11.8058C15.7018 11.7249 16.036 11.7794 16.3638 11.9732L19.4437 13.7037C20.2658 14.1375 20.936 14.7931 21.3828 15.5989C22.1804 17.0385 22.4639 18.8318 22.4639 19.93C22.4639 21.3743 21.3161 23.8609 20.3933 25.8587C19.5447 27.6974 19.0639 28.77 19.0639 29.45V30.81H20.4239V29.45C20.4239 29.0358 21.0919 27.5906 21.6285 26.4285C22.6573 24.1994 23.8239 21.6728 23.8239 19.93C23.8239 18.9276 23.6323 17.5323 23.1385 16.19H23.1439V12.45C23.1439 12.044 23.1171 11.6462 23.0682 11.26C22.8526 9.53547 22.2189 8.02264 21.7321 6.8612C21.4091 6.0894 21.1039 5.36027 21.1039 4.96995V0.889954H19.7439V4.96995C19.7439 5.63363 20.0683 6.40661 20.4783 7.38581C21.0597 8.77505 21.7839 10.5038 21.7839 12.45V13.8511C21.3023 13.3102 20.7382 12.8477 20.0945 12.5084L17.0425 10.7938C16.4257 10.4293 15.7364 10.3212 15.0503 10.4817C13.9901 10.7285 13.1592 11.6076 12.9824 12.6691C12.8001 13.7598 13.2873 14.8441 14.2189 15.4289L17.0239 17.21V19.1397C17.0239 19.4797 16.8984 19.8045 16.6692 20.0561C16.026 20.7613 14.9514 21.9368 14.3264 22.6141C12.0571 25.0736 9.24855 27.7724 9.13612 27.8814C8.96033 28.0146 8.74858 28.09 8.52386 28.09C7.9615 28.09 7.50386 27.6323 7.50386 27.07C7.50386 26.8734 7.57475 26.6538 7.69511 26.4763L11.0805 23.1347C11.3477 22.8709 11.351 22.4404 11.0871 22.1732C10.8233 21.9052 10.3935 21.9013 10.1256 22.1652L6.74417 25.5028C6.73861 25.508 6.731 25.5092 6.72558 25.5147C6.30466 25.9397 6.0235 25.9968 5.80386 25.9968C5.2415 25.9968 4.78386 25.5392 4.78386 24.9768C4.78386 24.6865 4.94119 24.3537 5.19823 24.1069L5.40542 23.905C5.40616 23.9043 5.40601 23.9031 5.40675 23.9024L7.57956 21.7787C7.84748 21.5155 7.85399 21.0857 7.59151 20.8171C7.32835 20.5492 6.8979 20.5434 6.62862 20.8052L4.43855 22.9461C4.21747 23.1521 4.01388 23.2423 3.76386 23.2423C3.2015 23.2423 2.74386 22.7847 2.74386 22.2223C2.74386 21.9238 2.87382 21.6419 3.13698 21.4148L4.79581 19.7732C4.80119 19.7679 4.80774 19.764 4.81308 19.7586C4.81544 19.7563 4.81607 19.753 4.81839 19.7507L4.83565 19.7334C5.10221 19.4689 5.10348 19.0391 4.83964 18.7718C4.57512 18.5059 4.14532 18.5027 3.87808 18.7665L3.82761 18.8157C3.62573 19.0061 3.33201 19.1344 3.08386 19.1344C2.5215 19.1344 2.06386 18.6768 2.06386 18.1144C2.06386 17.805 2.20175 17.4851 2.43839 17.2764L3.22065 16.518C3.31267 16.5626 3.42073 16.6236 3.49823 16.6575C3.79811 16.788 4.11545 16.854 4.44253 16.854C5.75561 16.854 6.82386 15.7857 6.82386 14.474C6.82386 14.3343 6.80848 14.1978 6.78534 14.0636C7.95419 13.9156 8.86386 12.9249 8.86386 11.7142C8.86386 11.3978 8.79972 11.0941 8.68589 10.8137C9.58213 10.4728 10.2239 9.60999 10.2239 8.59441C10.2239 8.05209 10.0411 7.54588 9.72448 7.13745C10.4264 6.72309 10.9039 5.96725 10.9039 5.0948C10.9039 4.45777 10.652 3.87133 10.2239 3.43464V0.889954H8.86386ZM7.58355 3.60995C7.74607 3.60995 7.9016 3.64675 8.0444 3.72019C8.313 3.85891 8.5491 3.97428 8.74698 4.06948L8.97409 4.17972C9.32497 4.35312 9.54386 4.7038 9.54386 5.0948C9.54386 5.65716 9.08622 6.1148 8.52386 6.1148C8.38378 6.1148 8.24856 6.08753 8.12276 6.03245C7.83648 5.90801 7.57897 5.77392 7.37769 5.66988L7.13464 5.54636C6.78172 5.37296 6.56354 5.02231 6.56354 4.62995C6.56354 4.06759 7.02118 3.60995 7.58355 3.60995ZM5.11855 6.15995C5.28039 6.15995 5.43398 6.19675 5.57542 6.27019L6.0137 6.4973C6.76374 6.88694 8.1159 7.58892 8.29542 7.678C8.64494 7.8514 8.86253 8.20273 8.86253 8.59441C8.86253 9.15677 8.40748 9.61441 7.84784 9.61441C7.70912 9.61441 7.5752 9.58581 7.4494 9.53073C7.37061 9.4962 7.03078 9.31378 6.83581 9.21464C6.33278 8.95456 5.79191 8.67505 5.28058 8.4098L4.8423 8.18269C4.83856 8.18075 4.83409 8.18062 4.83034 8.1787C4.79445 8.16015 4.69026 8.1046 4.67362 8.09636C4.32206 7.92364 4.10386 7.57299 4.10386 7.17995C4.10386 6.61759 4.5589 6.15995 5.11855 6.15995ZM3.75855 9.27972C3.91549 9.27972 4.06497 9.31615 4.20347 9.38464C4.31272 9.44129 4.45553 9.51612 4.71347 9.65159C5.00768 9.80639 5.09939 9.84709 5.36558 9.98628C6.02136 10.3264 6.81191 10.7365 6.93542 10.7978C7.28494 10.9712 7.50253 11.3225 7.50253 11.7142C7.50253 12.2765 7.04748 12.7342 6.48784 12.7342C6.34912 12.7342 6.2152 12.7069 6.0894 12.6518C6.02649 12.6243 5.74058 12.4706 5.59933 12.3995C5.5647 12.3802 5.53289 12.3574 5.49706 12.3397C5.27266 12.2282 4.5443 11.8548 4.16894 11.661C4.16718 11.6601 4.16538 11.6593 4.16362 11.6584C4.10043 11.6252 4.04447 11.5983 3.98698 11.5681C3.64698 11.3886 3.38502 11.2515 3.31362 11.2161C2.96206 11.0434 2.74386 10.6928 2.74386 10.2997C2.74386 9.73736 3.1989 9.27972 3.75855 9.27972ZM3.08519 12.7581C3.24839 12.7581 3.4026 12.7955 3.54472 12.8696H3.54605C4.15221 13.1883 4.53745 13.3827 4.91401 13.5722C5.25212 13.7492 5.46386 14.0912 5.46386 14.474C5.46386 15.0364 5.00557 15.494 4.44253 15.494C4.30245 15.494 4.16792 15.4668 4.04144 15.4117C3.77556 15.2954 3.33381 15.0604 3.01081 14.8897C2.84761 14.8034 2.71244 14.7319 2.63628 14.6945C2.28336 14.5211 2.06386 14.1704 2.06386 13.7781C2.06386 13.2157 2.52215 12.7581 3.08519 12.7581Z" fill="#DCDAE0" stroke="#DCDAE0"/>
</svg>
