<svg width="30" height="29" viewBox="0 0 30 29" fill="none" xmlns="http://www.w3.org/2000/svg">
<rect x="0.637817" y="0.228027" width="28.7228" height="28.7228" rx="14.3614" fill="#EBEBEB"/>
<path d="M14.1855 22.8527C12.4222 20.6487 8.48874 15.3928 8.48874 12.4088C8.48874 8.81442 11.371 5.89825 14.9993 5.89825C18.5936 5.89825 21.5098 8.81442 21.5098 12.4088C21.5098 15.3928 17.5424 20.6487 15.7792 22.8527C15.3723 23.3614 14.5924 23.3614 14.1855 22.8527ZM14.9993 14.579C16.1861 14.579 17.1694 13.6295 17.1694 12.4088C17.1694 11.222 16.1861 10.2386 14.9993 10.2386C13.7785 10.2386 12.8291 11.222 12.8291 12.4088C12.8291 13.6295 13.7785 14.579 14.9993 14.579Z" fill="#F37020"/>
</svg>
