<svg width="19" height="24" viewBox="0 0 19 24" fill="none" xmlns="http://www.w3.org/2000/svg">
<path d="M1.36406 0.409888C0.923438 0.55813 0.58125 0.854614 0.342188 1.29036L0.210938 1.52844V22.1027L0.3375 22.3587C0.501563 22.7001 0.801563 23.0011 1.14844 23.1718L1.42969 23.3156H16.5703L16.8422 23.1853C17.175 23.0236 17.4984 22.7001 17.6625 22.3587L17.7891 22.1027L17.8031 18.3202C17.8125 14.5782 17.8125 14.5333 17.7188 14.4435C17.5969 14.3267 17.3438 14.3267 17.1984 14.439L17.0859 14.5243L17.0625 18.2484C17.0391 21.604 17.0297 21.9814 16.9594 22.1027C16.8609 22.2734 16.6641 22.4486 16.4531 22.5564C16.2938 22.6372 16.0219 22.6417 9 22.6417H1.71094L1.52344 22.5429C1.28437 22.4216 1.10156 22.2374 1.0125 22.0263C0.946875 21.878 0.9375 20.7954 0.9375 11.838C0.9375 2.88059 0.946875 1.79797 1.0125 1.64973C1.10156 1.4386 1.28437 1.25442 1.52344 1.13313L1.71094 1.0343L11.2969 1.00735V2.3595H7.12031C2.4375 2.3595 2.73281 2.33704 2.49375 2.68743L2.36719 2.87161V5.08625L2.50313 5.25247C2.57813 5.3468 2.72344 5.4636 2.83125 5.50852C3.01406 5.58938 3.21094 5.59387 6.64688 5.59387C10.1906 5.59387 10.2656 5.59387 10.3594 5.50403C10.4953 5.37375 10.5188 5.22102 10.4344 5.0593C10.3922 4.98293 10.35 4.91555 10.3453 4.91106C10.3406 4.90207 8.71406 4.8886 6.72656 4.87512L3.11719 4.85266L3.10313 3.98118C3.09375 3.31184 3.10781 3.10071 3.15 3.06926C3.18281 3.05129 5.02969 3.03333 7.25625 3.03333H11.2969V4.03508C11.2969 5.15364 11.3391 5.41868 11.5828 5.78254C11.775 6.07004 12.0047 6.25422 12.375 6.42043L12.6797 6.55969L17.0625 6.58665L17.0719 9.93332L17.0859 13.2845L17.2219 13.3968C17.3766 13.5226 17.5734 13.5136 17.7281 13.3788C17.8078 13.3115 17.8125 13.1273 17.8125 9.66379V6.02063L14.8453 3.18157L11.8828 0.338013H6.72656C2.19844 0.342505 1.54688 0.351489 1.36406 0.409888ZM14.7844 5.85442C13.7063 5.85891 12.9563 5.84543 12.8484 5.81848C12.4828 5.72415 12.1969 5.45012 12.0938 5.10422C12.0656 5.00989 12.0469 4.24172 12.0469 3.23547V1.52844L16.5469 5.84094L14.7844 5.85442Z" fill="#9796A1"/>
<path d="M2.66719 7.26946C2.35312 7.46711 2.34375 7.52551 2.34375 9.04387C2.34375 10.3062 2.34844 10.4185 2.4375 10.5757C2.49844 10.697 2.59219 10.7823 2.73281 10.8452C2.925 10.9351 3.00938 10.9396 4.3125 10.9396C5.59219 10.9396 5.70469 10.9351 5.88281 10.8497C6.00469 10.7913 6.1125 10.697 6.17813 10.5847C6.27656 10.4185 6.28125 10.3646 6.28125 9.04836C6.28125 7.52551 6.27188 7.46711 5.95781 7.26946C5.79844 7.16614 5.77969 7.16614 4.3125 7.16614C2.84531 7.16614 2.82656 7.16614 2.66719 7.26946ZM5.53125 10.2208H3.09375V7.88489H5.53125V10.2208Z" fill="#9796A1"/>
<path d="M7.73906 7.28293C7.61719 7.43118 7.6125 7.61985 7.72969 7.75461L7.81875 7.86243H15.2906L15.3797 7.75461C15.4969 7.61985 15.4922 7.43118 15.3703 7.28293L15.2766 7.16614H7.83281L7.73906 7.28293Z" fill="#9796A1"/>
<path d="M7.73906 8.63059C7.61719 8.77883 7.6125 8.9675 7.72969 9.10227L7.81875 9.21008H15.2906L15.3797 9.10227C15.4969 8.9675 15.4922 8.77883 15.3703 8.63059L15.2766 8.51379H7.83281L7.73906 8.63059Z" fill="#9796A1"/>
<path d="M2.66719 12.3456C2.35312 12.5433 2.34375 12.6017 2.34375 14.12C2.34375 15.3823 2.34844 15.4947 2.4375 15.6519C2.49844 15.7732 2.59219 15.8585 2.73281 15.9214C2.925 16.0113 3.00938 16.0157 4.3125 16.0157C5.59219 16.0157 5.70469 16.0113 5.88281 15.9259C6.00469 15.8675 6.1125 15.7732 6.17813 15.6609C6.27656 15.4947 6.28125 15.4407 6.28125 14.1245C6.28125 12.6017 6.27188 12.5433 5.95781 12.3456C5.79844 12.2423 5.77969 12.2423 4.3125 12.2423C2.84531 12.2423 2.82656 12.2423 2.66719 12.3456ZM5.53125 15.297H3.09375V12.9611H5.53125V15.297Z" fill="#9796A1"/>
<path d="M7.73906 12.3591C7.61719 12.5073 7.6125 12.696 7.72969 12.8308L7.81875 12.9386H15.2906L15.3797 12.8308C15.4969 12.696 15.4922 12.5073 15.3703 12.3591L15.2766 12.2423H7.83281L7.73906 12.3591Z" fill="#9796A1"/>
<path d="M7.73906 13.7068C7.61719 13.855 7.6125 14.0437 7.72969 14.1784L7.81875 14.2863H15.2906L15.3797 14.1784C15.4969 14.0437 15.4922 13.855 15.3703 13.7068L15.2766 13.59H7.83281L7.73906 13.7068Z" fill="#9796A1"/>
<path d="M2.66719 17.4218C2.35312 17.6195 2.34375 17.6779 2.34375 19.1962C2.34375 20.4585 2.34844 20.5708 2.4375 20.7281C2.49844 20.8493 2.59219 20.9347 2.73281 20.9976C2.925 21.0874 3.00938 21.0919 4.3125 21.0919C5.59219 21.0919 5.70469 21.0874 5.88281 21.0021C6.00469 20.9437 6.1125 20.8493 6.17813 20.737C6.27656 20.5708 6.28125 20.5169 6.28125 19.2007C6.28125 17.6779 6.27188 17.6195 5.95781 17.4218C5.79844 17.3185 5.77969 17.3185 4.3125 17.3185C2.84531 17.3185 2.82656 17.3185 2.66719 17.4218ZM5.53125 20.3732H3.09375V18.0372H5.53125V20.3732Z" fill="#9796A1"/>
<path d="M7.73906 17.4353C7.61719 17.5835 7.6125 17.7722 7.72969 17.907L7.81875 18.0148H15.2906L15.3797 17.907C15.4969 17.7722 15.4922 17.5835 15.3703 17.4353L15.2766 17.3185H7.83281L7.73906 17.4353Z" fill="#9796A1"/>
<path d="M7.73906 18.7829C7.61719 18.9312 7.6125 19.1198 7.72969 19.2546L7.81875 19.3624H15.2906L15.3797 19.2546C15.4969 19.1198 15.4922 18.9312 15.3703 18.7829L15.2766 18.6661H7.83281L7.73906 18.7829Z" fill="#9796A1"/>
<path d="M1.36406 0.409888C0.923438 0.55813 0.58125 0.854614 0.342188 1.29036L0.210938 1.52844V22.1027L0.3375 22.3587C0.501563 22.7001 0.801563 23.0011 1.14844 23.1718L1.42969 23.3156H16.5703L16.8422 23.1853C17.175 23.0236 17.4984 22.7001 17.6625 22.3587L17.7891 22.1027L17.8031 18.3202C17.8125 14.5782 17.8125 14.5333 17.7188 14.4435C17.5969 14.3267 17.3438 14.3267 17.1984 14.439L17.0859 14.5243L17.0625 18.2484C17.0391 21.604 17.0297 21.9814 16.9594 22.1027C16.8609 22.2734 16.6641 22.4486 16.4531 22.5564C16.2938 22.6372 16.0219 22.6417 9 22.6417H1.71094L1.52344 22.5429C1.28437 22.4216 1.10156 22.2374 1.0125 22.0263C0.946875 21.878 0.9375 20.7954 0.9375 11.838C0.9375 2.88059 0.946875 1.79797 1.0125 1.64973C1.10156 1.4386 1.28437 1.25442 1.52344 1.13313L1.71094 1.0343L11.2969 1.00735V2.3595H7.12031C2.4375 2.3595 2.73281 2.33704 2.49375 2.68743L2.36719 2.87161V5.08625L2.50313 5.25247C2.57813 5.3468 2.72344 5.4636 2.83125 5.50852C3.01406 5.58938 3.21094 5.59387 6.64688 5.59387C10.1906 5.59387 10.2656 5.59387 10.3594 5.50403C10.4953 5.37375 10.5188 5.22102 10.4344 5.0593C10.3922 4.98293 10.35 4.91555 10.3453 4.91106C10.3406 4.90207 8.71406 4.8886 6.72656 4.87512L3.11719 4.85266L3.10313 3.98118C3.09375 3.31184 3.10781 3.10071 3.15 3.06926C3.18281 3.05129 5.02969 3.03333 7.25625 3.03333H11.2969V4.03508C11.2969 5.15364 11.3391 5.41868 11.5828 5.78254C11.775 6.07004 12.0047 6.25422 12.375 6.42043L12.6797 6.55969L17.0625 6.58665L17.0719 9.93332L17.0859 13.2845L17.2219 13.3968C17.3766 13.5226 17.5734 13.5136 17.7281 13.3788C17.8078 13.3115 17.8125 13.1273 17.8125 9.66379V6.02063L14.8453 3.18157L11.8828 0.338013H6.72656C2.19844 0.342505 1.54688 0.351489 1.36406 0.409888ZM14.7844 5.85442C13.7063 5.85891 12.9563 5.84543 12.8484 5.81848C12.4828 5.72415 12.1969 5.45012 12.0938 5.10422C12.0656 5.00989 12.0469 4.24172 12.0469 3.23547V1.52844L16.5469 5.84094L14.7844 5.85442Z" stroke="#9796A1" stroke-width="0.4"/>
<path d="M2.66719 7.26946C2.35312 7.46711 2.34375 7.52551 2.34375 9.04387C2.34375 10.3062 2.34844 10.4185 2.4375 10.5757C2.49844 10.697 2.59219 10.7823 2.73281 10.8452C2.925 10.9351 3.00938 10.9396 4.3125 10.9396C5.59219 10.9396 5.70469 10.9351 5.88281 10.8497C6.00469 10.7913 6.1125 10.697 6.17813 10.5847C6.27656 10.4185 6.28125 10.3646 6.28125 9.04836C6.28125 7.52551 6.27188 7.46711 5.95781 7.26946C5.79844 7.16614 5.77969 7.16614 4.3125 7.16614C2.84531 7.16614 2.82656 7.16614 2.66719 7.26946ZM5.53125 10.2208H3.09375V7.88489H5.53125V10.2208Z" stroke="#9796A1" stroke-width="0.4"/>
<path d="M7.73906 7.28293C7.61719 7.43118 7.6125 7.61985 7.72969 7.75461L7.81875 7.86243H15.2906L15.3797 7.75461C15.4969 7.61985 15.4922 7.43118 15.3703 7.28293L15.2766 7.16614H7.83281L7.73906 7.28293Z" stroke="#9796A1" stroke-width="0.4"/>
<path d="M7.73906 8.63059C7.61719 8.77883 7.6125 8.9675 7.72969 9.10227L7.81875 9.21008H15.2906L15.3797 9.10227C15.4969 8.9675 15.4922 8.77883 15.3703 8.63059L15.2766 8.51379H7.83281L7.73906 8.63059Z" stroke="#9796A1" stroke-width="0.4"/>
<path d="M2.66719 12.3456C2.35312 12.5433 2.34375 12.6017 2.34375 14.12C2.34375 15.3823 2.34844 15.4947 2.4375 15.6519C2.49844 15.7732 2.59219 15.8585 2.73281 15.9214C2.925 16.0113 3.00938 16.0157 4.3125 16.0157C5.59219 16.0157 5.70469 16.0113 5.88281 15.9259C6.00469 15.8675 6.1125 15.7732 6.17813 15.6609C6.27656 15.4947 6.28125 15.4407 6.28125 14.1245C6.28125 12.6017 6.27188 12.5433 5.95781 12.3456C5.79844 12.2423 5.77969 12.2423 4.3125 12.2423C2.84531 12.2423 2.82656 12.2423 2.66719 12.3456ZM5.53125 15.297H3.09375V12.9611H5.53125V15.297Z" stroke="#9796A1" stroke-width="0.4"/>
<path d="M7.73906 12.3591C7.61719 12.5073 7.6125 12.696 7.72969 12.8308L7.81875 12.9386H15.2906L15.3797 12.8308C15.4969 12.696 15.4922 12.5073 15.3703 12.3591L15.2766 12.2423H7.83281L7.73906 12.3591Z" stroke="#9796A1" stroke-width="0.4"/>
<path d="M7.73906 13.7068C7.61719 13.855 7.6125 14.0437 7.72969 14.1784L7.81875 14.2863H15.2906L15.3797 14.1784C15.4969 14.0437 15.4922 13.855 15.3703 13.7068L15.2766 13.59H7.83281L7.73906 13.7068Z" stroke="#9796A1" stroke-width="0.4"/>
<path d="M2.66719 17.4218C2.35312 17.6195 2.34375 17.6779 2.34375 19.1962C2.34375 20.4585 2.34844 20.5708 2.4375 20.7281C2.49844 20.8493 2.59219 20.9347 2.73281 20.9976C2.925 21.0874 3.00938 21.0919 4.3125 21.0919C5.59219 21.0919 5.70469 21.0874 5.88281 21.0021C6.00469 20.9437 6.1125 20.8493 6.17813 20.737C6.27656 20.5708 6.28125 20.5169 6.28125 19.2007C6.28125 17.6779 6.27188 17.6195 5.95781 17.4218C5.79844 17.3185 5.77969 17.3185 4.3125 17.3185C2.84531 17.3185 2.82656 17.3185 2.66719 17.4218ZM5.53125 20.3732H3.09375V18.0372H5.53125V20.3732Z" stroke="#9796A1" stroke-width="0.4"/>
<path d="M7.73906 17.4353C7.61719 17.5835 7.6125 17.7722 7.72969 17.907L7.81875 18.0148H15.2906L15.3797 17.907C15.4969 17.7722 15.4922 17.5835 15.3703 17.4353L15.2766 17.3185H7.83281L7.73906 17.4353Z" stroke="#9796A1" stroke-width="0.4"/>
<path d="M7.73906 18.7829C7.61719 18.9312 7.6125 19.1198 7.72969 19.2546L7.81875 19.3624H15.2906L15.3797 19.2546C15.4969 19.1198 15.4922 18.9312 15.3703 18.7829L15.2766 18.6661H7.83281L7.73906 18.7829Z" stroke="#9796A1" stroke-width="0.4"/>
</svg>
