<svg width="26" height="29" viewBox="0 0 26 29" fill="none" xmlns="http://www.w3.org/2000/svg">
<path d="M10.9857 0.191781C10.585 0.211912 10.1807 0.253061 9.77378 0.316292C3.77023 1.25126 -0.21676 6.85584 0.30536 12.8394C0.527727 15.4046 1.52562 16.9322 2.40546 18.2017C3.50507 19.7902 4.50002 21.0908 4.50002 24.5988V28.5085H17.25V24.2585H20.0834C21.6319 24.2585 22.9167 22.9737 22.9167 21.4252V17.2056L24.6543 16.4724C25.4485 16.138 25.8158 14.9303 25.3599 14.2118L22.842 10.2606V10.2579C22.1924 4.32816 16.9968 -0.110197 10.9857 0.191781ZM10.1667 3.12196V10.4764C9.7367 10.7247 9.3795 11.0816 9.13087 11.5114C8.88223 11.9411 8.7509 12.4287 8.75002 12.9252C8.75002 13.6766 9.04853 14.3973 9.57989 14.9286C10.1112 15.46 10.8319 15.7585 11.5834 15.7585C11.8309 15.7584 12.0775 15.7258 12.3166 15.6617L14.4222 17.7673C14.4193 17.806 14.4175 17.8447 14.4167 17.8835C14.4167 18.4471 14.6406 18.9876 15.0391 19.3861C15.4376 19.7846 15.9781 20.0085 16.5417 20.0085C17.1053 20.0085 17.6458 19.7846 18.0443 19.3861C18.4428 18.9876 18.6667 18.4471 18.6667 17.8835C18.6667 17.3199 18.4428 16.7794 18.0443 16.3809C17.6458 15.9824 17.1053 15.7585 16.5417 15.7585C16.5029 15.7593 16.4642 15.7611 16.4255 15.764L14.3171 13.6556C14.382 13.4175 14.4154 13.172 14.4167 12.9252C14.4163 12.4282 14.2852 11.9401 14.0365 11.5098C13.7879 11.0795 13.4304 10.7222 13 10.4737V3.12196C16.7132 3.73006 19.6037 6.72003 20.0252 10.5678L20.0972 11.2235L20.4514 11.7824L22.153 14.4525L20.0834 15.3269V16.2649V21.4252H14.4167V25.6752H7.33335V24.5988C7.33335 20.4738 5.83427 18.1763 4.73521 16.5886C3.85555 15.3194 3.30193 14.6066 3.12763 12.5959V12.5931C2.72742 8.00676 5.69779 3.84262 10.1667 3.12196Z" fill="#DCDAE0"/>
</svg>
