<svg width="26" height="23" viewBox="0 0 26 23" fill="none" xmlns="http://www.w3.org/2000/svg">
<path d="M17.9973 5.90601C17.9973 8.26929 14.8177 12.4373 13.4427 14.156C13.1419 14.5857 12.4973 14.5857 12.1966 14.156C10.8216 12.4373 7.68484 8.26929 7.68484 5.90601C7.68484 3.07007 9.96219 0.749756 12.8411 0.749756C15.677 0.749756 17.9973 3.07007 17.9973 5.90601ZM12.8411 7.28101C13.7864 7.28101 14.5598 6.55054 14.5598 5.56226C14.5598 4.61694 13.7864 3.84351 12.8411 3.84351C11.8528 3.84351 11.1223 4.61694 11.1223 5.56226C11.1223 6.55054 11.8528 7.28101 12.8411 7.28101ZM18.7278 8.48413C18.7708 8.44116 18.7708 8.39819 18.8138 8.35522L23.7981 6.33569C24.4427 6.07788 25.2161 6.55054 25.2161 7.28101V18.9255C25.2161 19.3552 24.9583 19.7419 24.5286 19.9138L18.3411 22.363V9.38647C18.47 9.08569 18.5989 8.78491 18.7278 8.48413ZM6.91141 8.48413C7.04031 8.78491 7.16922 9.08569 7.34109 9.38647V20.1716L1.84109 22.363C1.19656 22.6208 0.466095 22.1482 0.466095 21.4177V9.77319C0.466095 9.34351 0.680939 8.95679 1.11063 8.82788L6.35281 6.72241C6.48172 7.32397 6.65359 7.92554 6.91141 8.48413ZM14.5169 15.0154C15.1184 14.2849 16.0638 13.0818 16.9661 11.7068V22.449L8.71609 20.0857V11.7068C9.57547 13.0818 10.5208 14.2849 11.1223 15.0154C11.9817 16.1326 13.6575 16.1326 14.5169 15.0154Z" fill="#D3D1D8"/>
</svg>
