<svg width="29" height="30" viewBox="0 0 29 30" fill="none" xmlns="http://www.w3.org/2000/svg">
<rect x="0.156982" y="0.855103" width="28.7228" height="28.7228" rx="14.3614" fill="#EBEBEB"/>
<path d="M14.5184 22.2655C15.5188 22.2655 16.4608 22.0738 17.3444 21.6905C18.228 21.3118 19.004 20.7859 19.6725 20.1127C20.3457 19.4395 20.874 18.6635 21.2573 17.7846C21.6407 16.901 21.8323 15.9567 21.8323 14.9516C21.8323 13.9511 21.6407 13.0115 21.2573 12.1326C20.874 11.249 20.3457 10.4706 19.6725 9.79745C19.004 9.12426 18.2256 8.59833 17.3374 8.21966C16.4538 7.83632 15.5118 7.64465 14.5114 7.64465C13.511 7.64465 12.569 7.83632 11.6854 8.21966C10.8018 8.59833 10.0235 9.12426 9.35027 9.79745C8.68175 10.4706 8.15582 11.249 7.77247 12.1326C7.3938 13.0115 7.20447 13.9511 7.20447 14.9516C7.20447 15.9567 7.3938 16.901 7.77247 17.7846C8.15582 18.6635 8.68409 19.4395 9.35728 20.1127C10.0305 20.7859 10.8088 21.3118 11.6924 21.6905C12.576 22.0738 13.518 22.2655 14.5184 22.2655ZM11.3488 16.7818V15.0568C11.3488 14.4116 11.5124 13.9278 11.8397 13.6052C12.1669 13.2779 12.6554 13.1143 13.3053 13.1143H15.3318V12.1887C15.3318 11.9409 15.4324 11.7773 15.6334 11.6978C15.8391 11.6137 16.0424 11.6534 16.2435 11.817L18.0737 13.2616C18.2887 13.4346 18.3963 13.6239 18.3963 13.8296C18.4009 14.0353 18.2934 14.2246 18.0737 14.3976L16.2435 15.8421C16.0424 16.0058 15.8391 16.0455 15.6334 15.9614C15.4324 15.8772 15.3318 15.7112 15.3318 15.4635V14.5659H13.5437C13.3006 14.5659 13.1136 14.6313 12.9827 14.7622C12.8565 14.8885 12.7934 15.0825 12.7934 15.3443V16.7818C12.7934 17.0249 12.7279 17.2189 12.597 17.3638C12.4708 17.5041 12.2955 17.5765 12.0711 17.5812C11.842 17.5812 11.6644 17.5088 11.5381 17.3638C11.4119 17.2189 11.3488 17.0249 11.3488 16.7818Z" fill="#F37020"/>
</svg>
