<svg width="19" height="23" viewBox="0 0 19 23" fill="none" xmlns="http://www.w3.org/2000/svg">
<path d="M2.85938 22.75C2.09983 22.75 1.45421 22.4629 0.922526 21.8887C0.390842 21.3145 0.125 20.6172 0.125 19.7969V17.6875C0.125 17.2234 0.277995 16.8262 0.583984 16.4957C0.889974 16.1652 1.25781 16 1.6875 16H3.25V1.9375C3.25 1.47344 3.40299 1.07617 3.70898 0.745703C4.01497 0.415234 4.38281 0.25 4.8125 0.25H17.3125C17.7422 0.25 18.11 0.415234 18.416 0.745703C18.722 1.07617 18.875 1.47344 18.875 1.9375V19.7969C18.875 20.6172 18.6092 21.3145 18.0775 21.8887C17.5458 22.4629 16.9002 22.75 16.1406 22.75H2.85938ZM16.1383 21.0625C16.4697 21.0625 16.7483 20.9412 16.974 20.6986C17.1997 20.456 17.3125 20.1555 17.3125 19.7969V1.9375H4.8125V16H13.4062C13.8359 16 14.2038 16.1652 14.5098 16.4957C14.8158 16.8262 14.9688 17.2234 14.9688 17.6875V19.7969C14.9688 20.1555 15.0808 20.456 15.305 20.6986C15.5292 20.9412 15.807 21.0625 16.1383 21.0625ZM7.15625 7C6.9349 7 6.74935 6.91867 6.59961 6.75602C6.44987 6.59334 6.375 6.39178 6.375 6.15133C6.375 5.91086 6.44987 5.71094 6.59961 5.55156C6.74935 5.39219 6.9349 5.3125 7.15625 5.3125H14.9688C15.1901 5.3125 15.3757 5.39383 15.5254 5.55648C15.6751 5.71916 15.75 5.92072 15.75 6.16117C15.75 6.40164 15.6751 6.60156 15.5254 6.76094C15.3757 6.92031 15.1901 7 14.9688 7H7.15625ZM7.15625 10.375C6.9349 10.375 6.74935 10.2937 6.59961 10.131C6.44987 9.96834 6.375 9.76678 6.375 9.52633C6.375 9.28586 6.44987 9.08594 6.59961 8.92656C6.74935 8.76719 6.9349 8.6875 7.15625 8.6875H14.9688C15.1901 8.6875 15.3757 8.76883 15.5254 8.93148C15.6751 9.09416 15.75 9.29572 15.75 9.53617C15.75 9.77664 15.6751 9.97656 15.5254 10.1359C15.3757 10.2953 15.1901 10.375 14.9688 10.375H7.15625ZM2.83333 21.0625H13.4062V17.6875H1.6875V19.7969C1.6875 20.1555 1.80035 20.456 2.02604 20.6986C2.25174 20.9412 2.52083 21.0625 2.83333 21.0625ZM2.83333 21.0625H1.6875H13.4062H2.83333Z" fill="#9796A1"/>
</svg>
