<svg width="53" height="53" viewBox="0 0 53 53" fill="none" xmlns="http://www.w3.org/2000/svg">
<path d="M26.5 46.375C20.9424 46.375 16.2405 45.5193 12.3943 43.8078C8.54809 42.0964 6.625 40.0076 6.625 37.5417V15.4583C6.625 13.0292 8.56649 10.9497 12.4495 9.21979C16.3325 7.48993 21.016 6.625 26.5 6.625C31.984 6.625 36.6675 7.48993 40.5505 9.21979C44.4335 10.9497 46.375 13.0292 46.375 15.4583V37.5417C46.375 40.0076 44.4519 42.0964 40.6057 43.8078C36.7595 45.5193 32.0576 46.375 26.5 46.375ZM26.5 19.4333C29.6653 19.4333 32.9134 18.9457 36.2443 17.9703C39.5752 16.995 41.7191 15.9 42.676 14.6854C41.6823 13.5076 39.52 12.4219 36.1891 11.4281C32.8582 10.4344 29.6285 9.9375 26.5 9.9375C23.2611 9.9375 20.0038 10.416 16.7281 11.3729C13.4524 12.3299 11.2993 13.434 10.2687 14.6854C11.2993 15.9736 13.434 17.087 16.6729 18.0255C19.9118 18.9641 23.1875 19.4333 26.5 19.4333ZM26.4448 31.2479C27.9906 31.2479 29.5365 31.1651 31.0823 30.9995C32.6281 30.8339 34.1095 30.5854 35.5266 30.2542C36.9436 29.9229 38.2962 29.5181 39.5844 29.0396C40.8726 28.5611 42.0319 28.0274 43.0625 27.4385V18.8812C41.9951 19.4701 40.8174 20.0038 39.5292 20.4823C38.241 20.9608 36.8792 21.3656 35.4438 21.6969C34.0083 22.0281 32.5361 22.2858 31.0271 22.4698C29.5181 22.6538 27.9906 22.7458 26.4448 22.7458C24.899 22.7458 23.3531 22.6538 21.8073 22.4698C20.2615 22.2858 18.78 22.0281 17.363 21.6969C15.946 21.3656 14.6026 20.9608 13.3328 20.4823C12.063 20.0038 10.9313 19.4701 9.9375 18.8812V27.4385C10.9313 28.0274 12.0538 28.5611 13.3052 29.0396C14.5566 29.5181 15.8908 29.9229 17.3078 30.2542C18.7248 30.5854 20.2063 30.8339 21.7521 30.9995C23.2979 31.1651 24.8622 31.2479 26.4448 31.2479ZM26.5 43.0625C28.2667 43.0625 30.0885 42.9061 31.9656 42.5932C33.8427 42.2804 35.5634 41.8663 37.1276 41.351C38.6918 40.8358 40.0168 40.2653 41.1026 39.6396C42.1884 39.0139 42.8417 38.3698 43.0625 37.7073V30.8062C42.0319 31.3951 40.8726 31.9196 39.5844 32.3797C38.2962 32.8398 36.9436 33.2354 35.5266 33.5667C34.1095 33.8979 32.6373 34.1464 31.1099 34.312C29.5825 34.4776 28.0274 34.5604 26.4448 34.5604C24.8622 34.5604 23.2979 34.4776 21.7521 34.312C20.2063 34.1464 18.7248 33.8979 17.3078 33.5667C15.8908 33.2354 14.5566 32.8398 13.3052 32.3797C12.0538 31.9196 10.9313 31.3951 9.9375 30.8062V37.7625C10.1215 38.3882 10.7472 39.0231 11.8146 39.6672C12.8819 40.3113 14.2069 40.8818 15.7896 41.3786C17.3722 41.8755 19.1021 42.2804 20.9792 42.5932C22.8563 42.9061 24.6965 43.0625 26.5 43.0625Z" fill="#696987"/>
<g filter="url(#filter0_f_1_2179)">
<circle cx="30" cy="30" r="19" fill="#696987" fill-opacity="0.15"/>
</g>
<defs>
<filter id="filter0_f_1_2179" x="8" y="8" width="44" height="44" filterUnits="userSpaceOnUse" color-interpolation-filters="sRGB">
<feFlood flood-opacity="0" result="BackgroundImageFix"/>
<feBlend mode="normal" in="SourceGraphic" in2="BackgroundImageFix" result="shape"/>
<feGaussianBlur stdDeviation="1.5" result="effect1_foregroundBlur_1_2179"/>
</filter>
</defs>
</svg>
