<svg width="19" height="19" viewBox="0 0 19 19" fill="none" xmlns="http://www.w3.org/2000/svg">
<path d="M6.64861 9.3508C6.64861 7.85881 7.83542 6.63808 9.36133 6.63808C10.8533 6.63808 12.074 7.85881 12.074 9.3508C12.074 10.8767 10.8533 12.0635 9.36133 12.0635C7.83542 12.0635 6.64861 10.8767 6.64861 9.3508ZM9.36133 0.670099C9.93778 0.670099 10.4464 1.17873 10.4464 1.75519V2.942C13.1591 3.41673 15.2954 5.55299 15.7701 8.26571H16.9569C17.5334 8.26571 18.042 8.77435 18.042 9.3508C18.042 9.96116 17.5334 10.4359 16.9569 10.4359H15.7701C15.2954 13.1825 13.1591 15.3188 10.4464 15.7935V16.9464C10.4464 17.5568 9.93778 18.0315 9.36133 18.0315C8.75097 18.0315 8.27624 17.5568 8.27624 16.9464V15.7935C5.52961 15.3188 3.39335 13.1825 2.91862 10.4359H1.76571C1.15535 10.4359 0.680626 9.96116 0.680626 9.3508C0.680626 8.77435 1.15535 8.26571 1.76571 8.26571H2.91862C3.39335 5.55299 5.52961 3.41673 8.27624 2.942V1.75519C8.27624 1.17873 8.75097 0.670099 9.36133 0.670099ZM5.02098 9.3508C5.02098 11.7583 6.95379 13.6912 9.36133 13.6912C11.735 13.6912 13.7017 11.7583 13.7017 9.3508C13.7017 6.97717 11.735 5.01045 9.36133 5.01045C6.95379 5.01045 5.02098 6.97717 5.02098 9.3508Z" fill="white"/>
</svg>
