<svg width="20" height="21" viewBox="0 0 20 21" fill="none" xmlns="http://www.w3.org/2000/svg">
<path d="M3.95544 3.87518C3.95544 4.92987 3.09607 5.75018 2.08044 5.75018C1.02576 5.75018 0.205444 4.92987 0.205444 3.87518C0.205444 2.85956 1.02576 2.00018 2.08044 2.00018C3.09607 2.00018 3.95544 2.85956 3.95544 3.87518ZM0.205444 10.1252C0.205444 9.10956 1.02576 8.25018 2.08044 8.25018C3.09607 8.25018 3.95544 9.10956 3.95544 10.1252C3.95544 11.1799 3.09607 12.0002 2.08044 12.0002C1.02576 12.0002 0.205444 11.1799 0.205444 10.1252ZM0.205444 16.3752C0.205444 15.3596 1.02576 14.5002 2.08044 14.5002C3.09607 14.5002 3.95544 15.3596 3.95544 16.3752C3.95544 17.4299 3.09607 18.2502 2.08044 18.2502C1.02576 18.2502 0.205444 17.4299 0.205444 16.3752ZM7.78357 2.00018H16.1429C16.6508 2.00018 17.0804 2.42987 17.0804 2.93768V4.81268C17.0804 5.35956 16.6508 5.75018 16.1429 5.75018H7.78357C7.51013 5.75018 7.27576 5.67206 7.04138 5.51581L5.55701 4.383C5.20544 4.14862 5.20544 3.64081 5.55701 3.40643L7.04138 2.27362C7.27576 2.11737 7.51013 2.00018 7.78357 2.00018ZM5.55701 9.65643L7.04138 8.52362C7.27576 8.36737 7.51013 8.25018 7.78357 8.25018H18.6429C19.1508 8.25018 19.5804 8.67987 19.5804 9.18768V11.0627C19.5804 11.6096 19.1508 12.0002 18.6429 12.0002H7.78357C7.51013 12.0002 7.27576 11.9221 7.04138 11.7658L5.55701 10.633C5.20544 10.3986 5.20544 9.89081 5.55701 9.65643ZM5.55701 15.9064L7.04138 14.7736C7.27576 14.6174 7.51013 14.5002 7.78357 14.5002H16.1429C16.6508 14.5002 17.0804 14.9299 17.0804 15.4377V17.3127C17.0804 17.8596 16.6508 18.2502 16.1429 18.2502H7.78357C7.51013 18.2502 7.27576 18.1721 7.04138 18.0158L5.55701 16.883C5.20544 16.6486 5.20544 16.1408 5.55701 15.9064Z" fill="#F37020"/>
</svg>
