<svg width="21" height="5" viewBox="0 0 21 5" fill="none" xmlns="http://www.w3.org/2000/svg">
<path d="M5.25499 2.40157C5.25499 1.77077 5.03558 1.23596 4.59676 0.797134C4.15794 0.358314 3.61627 0.138903 2.97175 0.138903C2.56036 0.138903 2.17982 0.241752 1.83013 0.447449C1.4873 0.64629 1.21304 0.917124 1.00734 1.25995C0.808502 1.60278 0.709081 1.98332 0.709081 2.40157C0.709081 2.81297 0.808502 3.19008 1.00734 3.53291C1.21304 3.87574 1.4873 4.15 1.83013 4.3557C2.17982 4.56139 2.56036 4.66424 2.97175 4.66424C3.39 4.66424 3.77054 4.56139 4.11337 4.3557C4.4562 4.15 4.73046 3.87574 4.93616 3.53291C5.14871 3.19008 5.25499 2.81297 5.25499 2.40157ZM12.9481 2.40157C12.9481 1.77077 12.7287 1.23596 12.2898 0.797134C11.8579 0.358314 11.3265 0.138903 10.6957 0.138903C10.2774 0.138903 9.89689 0.241752 9.55406 0.447449C9.21123 0.64629 8.93697 0.917124 8.73127 1.25995C8.53243 1.60278 8.43301 1.98332 8.43301 2.40157C8.43301 2.81297 8.53243 3.19008 8.73127 3.53291C8.93697 3.87574 9.21123 4.15 9.55406 4.3557C9.89689 4.56139 10.2774 4.66424 10.6957 4.66424C11.1071 4.66424 11.4808 4.56139 11.8167 4.3557C12.1596 4.15 12.4338 3.87574 12.6395 3.53291C12.8452 3.19008 12.9481 2.81297 12.9481 2.40157ZM20.672 2.40157C20.672 1.77077 20.4526 1.23596 20.0138 0.797134C19.5818 0.358314 19.047 0.138903 18.4093 0.138903C17.9911 0.138903 17.6105 0.241752 17.2677 0.447449C16.9249 0.64629 16.6506 0.917124 16.4449 1.25995C16.2392 1.60278 16.1364 1.98332 16.1364 2.40157C16.1364 2.81297 16.2392 3.19008 16.4449 3.53291C16.6506 3.87574 16.9249 4.15 17.2677 4.3557C17.6105 4.56139 17.9911 4.66424 18.4093 4.66424C18.8207 4.66424 19.1978 4.56139 19.5407 4.3557C19.8835 4.15 20.1577 3.87574 20.3634 3.53291C20.5691 3.19008 20.672 2.81297 20.672 2.40157Z" fill="#F37020"/>
</svg>
