<svg width="22" height="22" viewBox="0 0 22 22" fill="none" xmlns="http://www.w3.org/2000/svg">
<path d="M1.83333 0C0.820417 0 0 0.820417 0 1.83333V15.5833C0 16.5963 0.820417 17.4167 1.83333 17.4167H5.5V21.0833C5.5 21.3264 5.59658 21.5596 5.76849 21.7315C5.94039 21.9034 6.17355 22 6.41667 22C6.56946 21.9997 6.71977 21.9612 6.85391 21.8881C6.98805 21.8149 7.10177 21.7094 7.18473 21.5811L10.3125 17.4167H20.1667C21.1796 17.4167 22 16.5963 22 15.5833V1.83333C22 0.820417 21.1796 0 20.1667 0H1.83333ZM4.70687 1.83333L7.17757 3.55924L7.32438 4.45085L10.2069 7.33154L11.4333 6.10514C10.8292 5.07756 10.7999 3.9563 11.7376 3.01855C12.6515 2.10464 14.2253 1.6266 15.4884 1.93001L12.8333 4.58333L14.6667 6.41667L17.32 3.76335C17.6234 5.0256 17.1454 6.60024 16.2314 7.51416C15.2937 8.45191 14.1734 8.42261 13.1449 7.81852L6.6512 14.3122C6.17821 14.7852 5.41083 14.7852 4.93783 14.3122C4.46483 13.8392 4.46483 13.0718 4.93783 12.5988L9.16309 8.37354L6.28418 5.49105L5.39258 5.34245L3.66667 2.87354L4.70687 1.83333ZM14.0848 10.4181L16.1204 12.4538C16.6264 12.9598 16.6264 13.7811 16.1204 14.2871C15.6144 14.7931 14.7931 14.7931 14.2871 14.2871L12.2515 12.2515L14.0848 10.4181Z" fill="#F7F7F6"/>
</svg>
