<svg width="34" height="30" viewBox="0 0 34 30" fill="none" xmlns="http://www.w3.org/2000/svg">
<path d="M4.10429 25.1656L16.8543 29.6813C16.8809 29.6813 16.9074 29.7078 16.934 29.7078C16.9605 29.7078 16.9605 29.7078 16.9871 29.7078C17.0137 29.7078 17.0402 29.7078 17.0934 29.7078H17.1199C17.173 29.7078 17.1996 29.7078 17.2527 29.7078H17.2793C17.3059 29.7078 17.3324 29.6813 17.3855 29.6813L30.1355 25.1656C30.4543 25.0594 30.6668 24.7406 30.6668 24.4219V11.3531L33.748 6.22657C33.7746 6.17345 33.8012 6.12032 33.8012 6.09376V6.0672C33.8277 6.01407 33.8277 5.96095 33.8277 5.90782C33.8277 5.80157 33.8277 5.69532 33.8012 5.58907V5.56251C33.7746 5.48282 33.7215 5.40313 33.6684 5.32345C33.5887 5.2172 33.4559 5.13751 33.323 5.08439C33.323 5.08439 33.323 5.08439 33.2965 5.08439L20.5465 0.568761C20.2012 0.435948 19.8027 0.595323 19.5902 0.914073L17.1199 5.08439L14.623 0.914073C14.4371 0.595323 14.0387 0.435948 13.6668 0.568761L0.916793 5.08439C0.704293 5.16407 0.518355 5.35001 0.438668 5.56251C0.35898 5.77501 0.385543 6.04064 0.491793 6.22657L3.57304 11.3531V24.4219C3.57304 24.7672 3.78554 25.0594 4.10429 25.1656ZM6.76054 11.1406L17.1199 7.47501L21.5824 9.0422L20.0418 9.57345C19.8559 9.62657 19.723 9.75939 19.6168 9.91876L16.7746 14.7L6.76054 11.1406ZM5.16679 12.2563L16.323 16.2141V27.7953L5.16679 23.8375V12.2563ZM20.6527 2.26876L30.6668 5.82814L28.4355 6.62501L23.973 8.21876L18.3152 6.22657L20.6527 2.26876ZM2.37773 6.25314L13.5871 2.26876L15.9512 6.20001L4.74179 10.1844L2.37773 6.25314Z" fill="#DCDAE0"/>
</svg>
