<svg width="53" height="52" viewBox="0 0 53 52" fill="none" xmlns="http://www.w3.org/2000/svg">
<g clip-path="url(#clip0_2295_1856)">
<path d="M44.7187 42.25C44.7187 44.643 42.7785 46.5833 40.3854 46.5833H15.4687C13.0757 46.5833 11.1354 44.643 11.1354 42.25V5.41663H44.7187V42.25Z" fill="#90CAF9"/>
<path d="M15.4687 13H18.7187V16.25H15.4687V13ZM21.9687 13H40.3854V16.25H21.9687V13ZM15.4687 19.5H18.7187V22.75H15.4687V19.5ZM21.9687 19.5H40.3854V22.75H21.9687V19.5Z" fill="#1976D2"/>
<path d="M37.1354 33.5833C37.1354 35.4022 38.2263 37.4942 40.5414 40.0833C38.2263 42.6725 37.1354 44.7644 37.1354 46.5833H40.3854C42.7785 46.5833 44.7187 44.6431 44.7187 42.25V26H34.9687V32.5H37.1354V33.5833Z" fill="#73BCF7"/>
<path d="M15.4687 26H18.7187V29.25H15.4687V26ZM21.9687 26H40.3854V29.25H21.9687V26Z" fill="#1976D2"/>
<path d="M34.9687 26H40.3854V29.25H34.9687V26Z" fill="#1E88E5"/>
<path d="M36.0521 41.1667C36.0521 40.3921 36.0521 37.0576 36.0521 35.75H7.88541C7.88541 37.0576 7.88541 40.3921 7.88541 41.1667C7.88541 44.1588 9.22657 46.5833 12.2187 46.5833H40.3854C37.3932 46.5833 36.0521 44.1588 36.0521 41.1667Z" fill="#42A5F5"/>
<path d="M45.9104 40.0833C47.4271 38.5667 50.1354 35.6417 50.1354 33.5833V32.5H39.3021V33.5833C39.3021 35.6417 42.0104 38.5667 43.5271 40.0833C42.0104 41.6 39.3021 44.525 39.3021 46.5833V47.6667H50.1354V46.5833C50.1354 44.525 47.4271 41.6 45.9104 40.0833Z" fill="#FFE0B2"/>
<path d="M50.1354 32.5H39.3021V30.3334H50.1354V32.5ZM50.1354 47.6667H39.3021V49.8334H50.1354V47.6667Z" fill="#8D6E63"/>
<path d="M52.3021 30.3333H37.1354V28.1666H52.3021V30.3333ZM52.3021 49.8333H37.1354V52H52.3021V49.8333Z" fill="#6D4C41"/>
<path d="M41.4687 47.6666C42.5521 45.5 44.7187 43.3333 44.7187 43.3333C44.7187 43.3333 46.8854 45.5 47.9687 47.6666H41.4687ZM41.9021 34.6666C42.4437 35.6416 43.5271 36.9416 44.7187 38.2416C46.0187 36.9416 46.9937 35.6416 47.5354 34.6666H41.9021Z" fill="#FB8C00"/>
</g>
<defs>
<clipPath id="clip0_2295_1856">
<rect width="52" height="52" fill="white" transform="translate(0.302063)"/>
</clipPath>
</defs>
</svg>
