<svg width="26" height="21" viewBox="0 0 26 21" fill="none" xmlns="http://www.w3.org/2000/svg">
<path d="M4.69672 6.89868C4.75843 6.58328 4.84413 6.24388 4.95384 5.88048C5.0704 5.51708 5.18696 5.18111 5.30353 4.87256C5.42694 4.55716 5.53322 4.31032 5.62236 4.13205C5.78006 3.84408 5.96176 3.63495 6.16745 3.50468C6.37315 3.36754 6.64741 3.27498 6.99024 3.22698C7.33993 3.17899 7.9673 3.14128 8.87237 3.11385C9.77744 3.08643 11.0116 3.07271 12.5749 3.07271C14.1382 3.07271 15.3758 3.08643 16.2878 3.11385C17.1997 3.13442 17.8271 3.17213 18.1699 3.22698C18.5127 3.27498 18.7835 3.36754 18.9824 3.50468C19.1881 3.63495 19.3732 3.84408 19.5378 4.13205C19.6338 4.30347 19.7366 4.54687 19.8463 4.86228C19.9629 5.17768 20.076 5.51708 20.1857 5.88048C20.3023 6.24388 20.3983 6.58328 20.4737 6.89868C20.5285 7.13866 20.5045 7.32036 20.4017 7.44378C20.3057 7.56034 20.1274 7.61176 19.8669 7.59805C19.3664 7.57062 18.7938 7.5432 18.1493 7.51577C17.5048 7.48834 16.7334 7.46435 15.8352 7.44378C14.937 7.42321 13.8502 7.41292 12.5749 7.41292C11.3065 7.41292 10.2231 7.42321 9.3249 7.44378C8.42669 7.46435 7.65533 7.48834 7.01081 7.51577C6.36629 7.5432 5.79377 7.57062 5.29324 7.59805C5.03955 7.61176 4.86128 7.56034 4.75843 7.44378C4.65558 7.32036 4.63501 7.13866 4.69672 6.89868ZM4.97441 14.9312C4.46702 14.9312 4.04534 14.7632 3.70937 14.4272C3.3734 14.0844 3.20541 13.6661 3.20541 13.1724C3.20541 12.6651 3.3734 12.2434 3.70937 11.9074C4.04534 11.5646 4.46702 11.3932 4.97441 11.3932C5.47494 11.3932 5.89319 11.5646 6.22916 11.9074C6.57199 12.2434 6.74341 12.6651 6.74341 13.1724C6.74341 13.6661 6.57199 14.0844 6.22916 14.4272C5.89319 14.7632 5.47494 14.9312 4.97441 14.9312ZM9.76715 14.4889C9.39004 14.4889 9.0815 14.3689 8.84152 14.1289C8.60154 13.889 8.48155 13.5804 8.48155 13.2033C8.48155 12.8262 8.60154 12.5211 8.84152 12.2879C9.0815 12.048 9.39004 11.928 9.76715 11.928H15.393C15.7701 11.928 16.0786 12.048 16.3186 12.2879C16.5586 12.5211 16.6786 12.8262 16.6786 13.2033C16.6786 13.5804 16.5586 13.889 16.3186 14.1289C16.0786 14.3689 15.7701 14.4889 15.393 14.4889H9.76715ZM20.1857 14.9312C19.6852 14.9312 19.2669 14.7632 18.931 14.4272C18.595 14.0844 18.427 13.6661 18.427 13.1724C18.427 12.6651 18.595 12.2434 18.931 11.9074C19.2669 11.5646 19.6852 11.3932 20.1857 11.3932C20.6862 11.3932 21.1045 11.5646 21.4405 11.9074C21.7833 12.2434 21.9547 12.6651 21.9547 13.1724C21.9547 13.6661 21.7833 14.0844 21.4405 14.4272C21.1045 14.7632 20.6862 14.9312 20.1857 14.9312ZM12.5749 17.8623C13.4663 17.8623 14.3988 17.8521 15.3724 17.8315C16.346 17.8109 17.2991 17.7835 18.2316 17.7492C19.1709 17.7081 20.028 17.6635 20.8028 17.6155C21.5845 17.5675 22.2187 17.5161 22.7055 17.4612C23.4803 17.3652 24.0802 17.1013 24.5054 16.6693C24.9373 16.2373 25.1533 15.6511 25.1533 14.9106V13.2136C25.1533 12.5896 25.1122 12.048 25.0299 11.5886C24.9545 11.1223 24.8208 10.6904 24.6288 10.2927C24.4368 9.895 24.1797 9.48704 23.8574 9.06878L22.9215 7.9066C22.7981 7.2895 22.6472 6.67927 22.469 6.07589C22.2907 5.47251 22.1124 4.93084 21.9341 4.45088C21.7627 3.97092 21.6187 3.6041 21.5022 3.3504C21.2073 2.72645 20.7857 2.22935 20.2371 1.8591C19.6886 1.48884 19.051 1.25572 18.3242 1.15973C18.0567 1.11859 17.6488 1.08773 17.1003 1.06716C16.5586 1.03974 15.9004 1.0226 15.1256 1.01574C14.3576 1.00203 13.5074 0.99517 12.5749 0.99517C11.6493 0.99517 10.7991 1.00203 10.0243 1.01574C9.25634 1.02945 8.59811 1.05002 8.04958 1.07745C7.50106 1.09802 7.09995 1.12545 6.84625 1.15973C6.1126 1.24886 5.47151 1.48199 4.92299 1.8591C4.37446 2.22935 3.95621 2.72645 3.66823 3.3504C3.54481 3.6041 3.39397 3.97092 3.2157 4.45088C3.04428 4.93084 2.86944 5.47251 2.69117 6.07589C2.5129 6.67927 2.36206 7.2895 2.23864 7.9066L1.30272 9.06878C0.9736 9.48704 0.716478 9.895 0.531351 10.2927C0.346223 10.6904 0.21252 11.1223 0.130241 11.5886C0.0479623 12.048 0.00682287 12.5896 0.00682287 13.2136V14.9106C0.00682287 15.6511 0.219377 16.2408 0.644484 16.6796C1.07645 17.1115 1.67983 17.3721 2.45462 17.4612C2.94144 17.5161 3.57224 17.5675 4.34703 17.6155C5.12183 17.6635 5.97547 17.7081 6.90796 17.7492C7.84731 17.7835 8.80381 17.8109 9.77744 17.8315C10.7579 17.8521 11.6904 17.8623 12.5749 17.8623ZM1.41585 20.8244H2.6706C3.06828 20.8244 3.40425 20.6872 3.67852 20.413C3.95278 20.1456 4.08991 19.813 4.08991 19.4154V16.7721L0.00682287 14.6843V19.4154C0.00682287 19.813 0.140526 20.1456 0.407932 20.413C0.682195 20.6872 1.01817 20.8244 1.41585 20.8244ZM22.4895 20.8244H23.7443C24.142 20.8244 24.4745 20.6872 24.7419 20.413C25.0162 20.1456 25.1533 19.813 25.1533 19.4154V14.6843L21.0805 16.7721V19.4154C21.0805 19.813 21.2142 20.1456 21.4816 20.413C21.7559 20.6872 22.0918 20.8244 22.4895 20.8244Z" fill="#F7F7F6"/>
</svg>
