<svg width="23" height="23" viewBox="0 0 23 23" fill="none" xmlns="http://www.w3.org/2000/svg">
<path d="M15.274 2C15.6066 2.15163 15.8513 2.36684 15.8562 2.76791C15.861 2.96356 15.8562 3.15921 15.8562 3.35485C15.8562 3.41844 15.8562 3.48202 15.8562 3.56517C16.1888 3.56517 16.5068 3.56517 16.8248 3.56517C18.361 3.57006 19.6037 4.56297 19.9364 6.06456C19.9706 6.22597 19.9951 6.39716 19.9951 6.56835C20 8.0895 20 9.61555 20 11.1367C20 11.5476 19.7113 11.8753 19.3297 11.9193C18.9237 11.9682 18.5616 11.7236 18.4638 11.3275C18.4442 11.2394 18.4442 11.1465 18.4442 11.0584C18.4442 9.64489 18.4442 8.23624 18.4442 6.82269C18.4442 6.43629 18.361 6.07434 18.1213 5.76131C17.8278 5.37491 17.4315 5.16948 16.9569 5.14502C16.5998 5.12546 16.2426 5.14013 15.8659 5.14013C15.8659 5.38958 15.8659 5.63903 15.8659 5.88359C15.861 6.35803 15.5333 6.69552 15.0783 6.69552C14.638 6.69552 14.3102 6.35314 14.3053 5.88848C14.3053 5.64392 14.3053 5.39936 14.3053 5.14013C13.1164 5.14013 11.9472 5.14013 10.7485 5.14013C10.7485 5.39936 10.7534 5.66348 10.7485 5.92761C10.7436 6.30423 10.4746 6.61726 10.1076 6.68574C9.75537 6.74932 9.37866 6.55857 9.25146 6.22108C9.19764 6.07923 9.19764 5.91782 9.18786 5.76131C9.17807 5.56077 9.18297 5.36023 9.18297 5.14502C8.01369 5.14502 6.84931 5.14502 5.66536 5.14502C5.66536 5.25752 5.66536 5.37491 5.66536 5.4874C5.66536 6.33847 5.43542 6.69552 4.87769 6.69063C4.32974 6.69063 4.0998 6.33357 4.0998 5.47762C4.0998 5.37001 4.0998 5.25752 4.0998 5.10589C3.63503 5.13524 3.18004 5.10589 2.74951 5.19393C2.00098 5.35045 1.56556 5.98141 1.56066 6.78845C1.55577 8.13352 1.56066 9.48349 1.56066 10.8286C1.56066 13.4698 1.56066 16.111 1.56066 18.7522C1.56066 19.4223 1.81996 19.9653 2.44618 20.2538C2.6908 20.3663 2.98434 20.4201 3.25342 20.425C5.1908 20.4397 7.13307 20.4348 9.07044 20.4299C9.38355 20.4299 9.62817 20.5571 9.77983 20.831C9.92661 21.0951 9.92171 21.369 9.76027 21.6283C9.61839 21.8581 9.40312 21.9902 9.12915 21.9902C7.05968 21.9902 4.99021 22.0049 2.92074 21.9853C1.54109 21.9706 0.239726 20.7674 0.0391389 19.3832C0.0342465 19.3392 0.0146771 19.3001 0 19.2609C0 14.9371 0 10.6182 0 6.29445C0.00978473 6.27488 0.0293542 6.25042 0.0342465 6.23086C0.308219 4.63145 1.56556 3.56517 3.19471 3.56517C3.49315 3.56517 3.79158 3.56517 4.10469 3.56517C4.10469 3.48202 4.10469 3.41844 4.10469 3.35485C4.10469 3.15921 4.10469 2.96356 4.10469 2.76791C4.10959 2.36684 4.3591 2.15163 4.68688 2C4.81898 2 4.94618 2 5.07827 2C5.53816 2.18586 5.70939 2.53803 5.66536 3.02225C5.65068 3.19834 5.66046 3.37931 5.66046 3.55539C6.84931 3.55539 8.00391 3.55539 9.17807 3.55539C9.17807 3.48202 9.17807 3.41844 9.17807 3.35485C9.17807 3.15921 9.17807 2.96356 9.17807 2.76791C9.18297 2.37173 9.43248 2.15163 9.76027 2C9.89236 2 10.0196 2 10.1517 2C10.6115 2.18586 10.7828 2.53803 10.7387 3.02225C10.7241 3.19834 10.7338 3.37931 10.7338 3.55539C11.9325 3.55539 13.1018 3.55539 14.2906 3.55539C14.2906 3.48202 14.2906 3.41844 14.2906 3.35485C14.2906 3.15921 14.2906 2.96356 14.2906 2.76791C14.2955 2.37173 14.545 2.15163 14.8728 2C15.0147 2 15.1419 2 15.274 2Z" fill="#9796A1"/>
<path d="M20.0002 17.2803C19.9953 19.8873 17.8671 22.0003 15.2595 21.9905C12.6518 21.9856 10.5383 19.858 10.5481 17.2559C10.553 14.6489 12.6812 12.5359 15.2839 12.5457C17.8916 12.5506 20.0051 14.6782 20.0002 17.2803ZM15.2644 20.4351C16.9865 20.4449 18.415 19.0265 18.4346 17.2901C18.4542 15.5635 17.0158 14.1158 15.279 14.1109C13.5569 14.1011 12.1284 15.5195 12.1088 17.2559C12.0892 18.9776 13.5276 20.4254 15.2644 20.4351Z" fill="#9796A1"/>
<path d="M4.87761 10.9804C4.44708 10.9804 4.10461 10.6331 4.10461 10.1978C4.10461 9.75759 4.45686 9.4152 4.90207 9.4201C5.3326 9.42499 5.67017 9.77715 5.66528 10.2125C5.66039 10.6429 5.31303 10.9853 4.87761 10.9804Z" fill="#9796A1"/>
<path d="M9.06071 10.1977C9.06071 10.6331 8.72314 10.9803 8.28772 10.9803C7.84252 10.9852 7.49516 10.6379 7.50005 10.1928C7.50005 9.76243 7.84741 9.42004 8.28283 9.42004C8.71336 9.42004 9.06071 9.76243 9.06071 10.1977Z" fill="#9796A1"/>
<path d="M12.461 10.2125C12.4561 10.6429 12.1136 10.9853 11.6782 10.9853C11.2379 10.9853 10.8954 10.6331 10.9003 10.188C10.9052 9.75758 11.2575 9.42009 11.6929 9.42498C12.1234 9.42498 12.461 9.77714 12.461 10.2125Z" fill="#9796A1"/>
<path d="M15.0834 10.9803C14.648 10.9803 14.3006 10.6428 14.2957 10.2124C14.2908 9.76732 14.6382 9.42004 15.0785 9.42004C15.509 9.42004 15.8564 9.76732 15.8564 10.1977C15.8564 10.6331 15.5188 10.9803 15.0834 10.9803Z" fill="#9796A1"/>
<path d="M4.87762 12.8191C5.31304 12.8191 5.6604 13.1566 5.6604 13.5919C5.66529 14.037 5.31793 14.3843 4.87272 14.3794C4.4422 14.3794 4.09973 14.0321 4.09973 13.5968C4.10462 13.1664 4.44709 12.8191 4.87762 12.8191Z" fill="#9796A1"/>
<path d="M9.06071 13.5968C9.06071 14.0321 8.72314 14.3794 8.28772 14.3794C7.84252 14.3843 7.49516 14.037 7.50005 13.5919C7.50005 13.1615 7.84741 12.8191 8.28283 12.8191C8.71336 12.8191 9.06071 13.1615 9.06071 13.5968Z" fill="#9796A1"/>
<path d="M4.87762 17.7742C4.44709 17.7742 4.09973 17.4269 4.09973 16.9965C4.09973 16.5563 4.45198 16.209 4.89229 16.2139C5.32282 16.2188 5.6604 16.5661 5.6604 17.0014C5.6604 17.4367 5.31304 17.7791 4.87762 17.7742Z" fill="#9796A1"/>
<path d="M8.27299 17.7742C7.84247 17.7693 7.5 17.4269 7.5 16.9916C7.5 16.5514 7.85225 16.209 8.29746 16.2139C8.72798 16.2188 9.06556 16.571 9.06066 17.0063C9.05577 17.4416 8.70841 17.7791 8.27299 17.7742Z" fill="#9796A1"/>
<path d="M16.0522 16.4876C16.199 16.4876 16.3164 16.4827 16.429 16.4876C16.8546 16.5023 17.1824 16.8446 17.1824 17.2751C17.1824 17.6957 16.8546 18.0381 16.4387 18.0479C16.0425 18.0577 15.6462 18.0528 15.2499 18.0479C14.8291 18.043 14.5014 17.7104 14.4965 17.2849C14.4916 16.737 14.4916 16.1892 14.4965 15.6463C14.5014 15.2159 14.8487 14.8882 15.2792 14.8882C15.7049 14.8882 16.0473 15.2208 16.0571 15.6512C16.0571 15.9202 16.0522 16.1941 16.0522 16.4876Z" fill="#9796A1"/>
</svg>
