<svg width="19" height="19" viewBox="0 0 19 19" fill="none" xmlns="http://www.w3.org/2000/svg">
<path d="M9.5 14.6823C9.74306 14.6823 9.95573 14.5911 10.138 14.4089C10.3203 14.2266 10.4115 14.0139 10.4115 13.7708C10.4115 13.5278 10.3203 13.3151 10.138 13.1328C9.95573 12.9505 9.74306 12.8594 9.5 12.8594C9.25694 12.8594 9.04427 12.9505 8.86198 13.1328C8.67969 13.3151 8.58854 13.5278 8.58854 13.7708C8.58854 14.0139 8.67969 14.2266 8.86198 14.4089C9.04427 14.5911 9.25694 14.6823 9.5 14.6823ZM9.5 10.9323C9.72569 10.9323 9.91233 10.8585 10.0599 10.7109C10.2075 10.5634 10.2812 10.3767 10.2812 10.151V4.86458C10.2812 4.63889 10.2075 4.45226 10.0599 4.30469C9.91233 4.15712 9.72569 4.08333 9.5 4.08333C9.27431 4.08333 9.08767 4.15712 8.9401 4.30469C8.79253 4.45226 8.71875 4.63889 8.71875 4.86458V10.151C8.71875 10.3767 8.79253 10.5634 8.9401 10.7109C9.08767 10.8585 9.27431 10.9323 9.5 10.9323ZM6.24479 18.875C6.03646 18.875 5.83247 18.8316 5.63281 18.7448C5.43316 18.658 5.26389 18.5451 5.125 18.4062L0.59375 13.875C0.454861 13.7361 0.342014 13.5668 0.255208 13.3672C0.168403 13.1675 0.125 12.9635 0.125 12.7552V6.24479C0.125 6.03646 0.168403 5.83247 0.255208 5.63281C0.342014 5.43316 0.454861 5.26389 0.59375 5.125L5.125 0.59375C5.26389 0.454861 5.43316 0.342014 5.63281 0.255208C5.83247 0.168403 6.03646 0.125 6.24479 0.125H12.7552C12.9635 0.125 13.1675 0.168403 13.3672 0.255208C13.5668 0.342014 13.7361 0.454861 13.875 0.59375L18.4062 5.125C18.5451 5.26389 18.658 5.43316 18.7448 5.63281C18.8316 5.83247 18.875 6.03646 18.875 6.24479V12.7552C18.875 12.9635 18.8316 13.1675 18.7448 13.3672C18.658 13.5668 18.5451 13.7361 18.4062 13.875L13.875 18.4062C13.7361 18.5451 13.5668 18.658 13.3672 18.7448C13.1675 18.8316 12.9635 18.875 12.7552 18.875H6.24479ZM6.24479 17.3125H12.7552L17.3125 12.7552V6.24479L12.7552 1.6875H6.24479L1.6875 6.24479V12.7552L6.24479 17.3125Z" fill="#9796A1"/>
</svg>
