<svg width="27" height="27" viewBox="0 0 27 27" fill="none" xmlns="http://www.w3.org/2000/svg">
<path d="M13.5 20.7552C13.8403 20.7552 14.138 20.6276 14.3932 20.3724C14.6484 20.1172 14.776 19.8194 14.776 19.4792C14.776 19.1389 14.6484 18.8411 14.3932 18.5859C14.138 18.3307 13.8403 18.2031 13.5 18.2031C13.1597 18.2031 12.862 18.3307 12.6068 18.5859C12.3516 18.8411 12.224 19.1389 12.224 19.4792C12.224 19.8194 12.3516 20.1172 12.6068 20.3724C12.862 20.6276 13.1597 20.7552 13.5 20.7552ZM13.5 15.5052C13.816 15.5052 14.0773 15.4019 14.2839 15.1953C14.4905 14.9887 14.5937 14.7274 14.5937 14.4115V7.01042C14.5937 6.69444 14.4905 6.43316 14.2839 6.22656C14.0773 6.01997 13.816 5.91667 13.5 5.91667C13.184 5.91667 12.9227 6.01997 12.7161 6.22656C12.5095 6.43316 12.4062 6.69444 12.4062 7.01042V14.4115C12.4062 14.7274 12.5095 14.9887 12.7161 15.1953C12.9227 15.4019 13.184 15.5052 13.5 15.5052ZM8.94271 26.625C8.65104 26.625 8.36545 26.5642 8.08594 26.4427C7.80642 26.3212 7.56944 26.1632 7.375 25.9688L1.03125 19.625C0.836806 19.4306 0.678819 19.1936 0.557292 18.9141C0.435764 18.6345 0.375 18.349 0.375 18.0573V8.94271C0.375 8.65104 0.435764 8.36545 0.557292 8.08594C0.678819 7.80642 0.836806 7.56944 1.03125 7.375L7.375 1.03125C7.56944 0.836806 7.80642 0.678819 8.08594 0.557292C8.36545 0.435764 8.65104 0.375 8.94271 0.375H18.0573C18.349 0.375 18.6345 0.435764 18.9141 0.557292C19.1936 0.678819 19.4306 0.836806 19.625 1.03125L25.9688 7.375C26.1632 7.56944 26.3212 7.80642 26.4427 8.08594C26.5642 8.36545 26.625 8.65104 26.625 8.94271V18.0573C26.625 18.349 26.5642 18.6345 26.4427 18.9141C26.3212 19.1936 26.1632 19.4306 25.9688 19.625L19.625 25.9688C19.4306 26.1632 19.1936 26.3212 18.9141 26.4427C18.6345 26.5642 18.349 26.625 18.0573 26.625H8.94271Z" fill="#F37020"/>
</svg>
