<svg width="19" height="17" viewBox="0 0 19 17" fill="none" xmlns="http://www.w3.org/2000/svg">
<path fill-rule="evenodd" clip-rule="evenodd" d="M16.7577 2.39195V3.35901C17.8994 3.35901 18.8249 4.21517 18.8249 5.2713V14.8328C18.8249 15.889 17.8994 16.7451 16.7577 16.7451H2.2874C1.14572 16.7451 0.220215 15.889 0.220215 14.8328V5.2713C0.220215 4.27255 1.08309 3.36586 2.09432 3.09859L13.4638 0.0935495C15.1145 -0.342741 16.7577 0.803834 16.7577 2.39195ZM13.1401 8.61783C12.2839 8.61783 11.5897 9.25998 11.5897 10.0521C11.5897 10.8441 12.2839 11.4863 13.1401 11.4863C13.9963 11.4863 14.6905 10.8441 14.6905 10.0521C14.6905 9.25998 13.9963 8.61783 13.1401 8.61783ZM14.6905 2.39195C14.6905 2.10079 14.4143 1.88384 14.114 1.91692L14.0317 1.93227L8.63375 3.35901H14.6905V2.39195Z" fill="#08D110"/>
</svg>
