<svg width="62" height="62" viewBox="0 0 62 62" fill="none" xmlns="http://www.w3.org/2000/svg">
<path d="M26.452 38.0147L18.8979 30.4605C18.4354 29.998 17.8701 29.7667 17.202 29.7667C16.534 29.7667 15.943 30.0237 15.4291 30.5376C14.9666 31.0001 14.7354 31.5654 14.7354 32.2334C14.7354 32.9015 14.9666 33.4667 15.4291 33.9292L24.8333 43.4105C25.2958 43.873 25.8354 44.1042 26.452 44.1042C27.0687 44.1042 27.6083 43.873 28.0708 43.4105L46.4937 24.9876C47.0076 24.4737 47.2645 23.8827 47.2645 23.2147C47.2645 22.5466 47.0076 21.9556 46.4937 21.4417C45.9798 20.9792 45.376 20.7608 44.6823 20.7865C43.9885 20.8122 43.4104 21.0563 42.9479 21.5188L26.452 38.0147ZM31 61.8334C26.7861 61.8334 22.8034 61.024 19.052 59.4053C15.3007 57.7865 12.0246 55.5768 9.22392 52.7761C6.42322 49.9754 4.2135 46.6994 2.59475 42.948C0.976001 39.1966 0.166626 35.214 0.166626 31.0001C0.166626 26.7348 0.976001 22.7265 2.59475 18.9751C4.2135 15.2237 6.42322 11.9605 9.22392 9.1855C12.0246 6.4105 15.3007 4.21362 19.052 2.59487C22.8034 0.976123 26.7861 0.166748 31 0.166748C35.2652 0.166748 39.2736 0.976123 43.025 2.59487C46.7763 4.21362 50.0395 6.4105 52.8145 9.1855C55.5895 11.9605 57.7864 15.2237 59.4052 18.9751C61.0239 22.7265 61.8333 26.7348 61.8333 31.0001C61.8333 35.214 61.0239 39.1966 59.4052 42.948C57.7864 46.6994 55.5895 49.9754 52.8145 52.7761C50.0395 55.5768 46.7763 57.7865 43.025 59.4053C39.2736 61.024 35.2652 61.8334 31 61.8334Z" fill="#F37020"/>
</svg>
