<svg width="22" height="21" viewBox="0 0 22 21" fill="none" xmlns="http://www.w3.org/2000/svg">
<path d="M1.83333 -0.000244141C0.820417 -0.000244141 0 0.751836 0 1.68038V14.2851C0 15.2136 0.820417 15.9657 1.83333 15.9657H5.5V19.327C5.5 19.5498 5.59658 19.7636 5.76849 19.9211C5.94039 20.0787 6.17355 20.1673 6.41667 20.1673C6.56946 20.167 6.71977 20.1317 6.85391 20.0647C6.98805 19.9976 7.10177 19.9008 7.18473 19.7832L10.3125 15.9657H20.1667C21.1796 15.9657 22 15.2136 22 14.2851V1.68038C22 0.751836 21.1796 -0.000244141 20.1667 -0.000244141H1.83333ZM4.70687 1.68038L7.17757 3.26253L7.32438 4.07987L10.2069 6.72062L11.4333 5.59637C10.8292 4.65438 10.7999 3.62652 11.7376 2.76688C12.6515 1.92909 14.2253 1.49086 15.4884 1.76901L12.8333 4.20132L14.6667 5.88195L17.32 3.44963C17.6234 4.60675 17.1454 6.05023 16.2314 6.88802C15.2937 7.74766 14.1734 7.7208 13.1449 7.16704L6.6512 13.1198C6.17821 13.5534 5.41083 13.5534 4.93783 13.1198C4.46483 12.6862 4.46483 11.9827 4.93783 11.5491L9.16309 7.67582L6.28418 5.03343L5.39258 4.89721L3.66667 2.63394L4.70687 1.68038ZM14.0848 9.55011L16.1204 11.4162C16.6264 11.88 16.6264 12.633 16.1204 13.0968C15.6144 13.5607 14.7931 13.5607 14.2871 13.0968L12.2515 11.2307L14.0848 9.55011Z" fill="#D3D1D8"/>
</svg>
