<svg width="23" height="23" viewBox="0 0 23 23" fill="none" xmlns="http://www.w3.org/2000/svg">
<path d="M17.1624 5.88775C18.2109 6.03941 19.1473 6.40772 19.9326 7.08369C21.6973 8.60027 22.3834 10.5242 21.7923 12.7817C21.2055 15.0219 19.6996 16.4129 17.4213 16.8332C14.3621 17.3965 11.4841 15.2949 11.0137 12.2184C10.9749 11.9628 10.9663 11.7028 10.962 11.4428C10.9533 11.0138 11.2338 10.7062 11.6265 10.7018C12.0364 10.6932 12.3168 10.9878 12.3384 11.4255C12.4161 13.137 13.1971 14.4153 14.7461 15.1519C17.2315 16.3305 20.1397 14.749 20.5625 12.0148C20.9207 9.69655 19.2508 7.52133 16.9208 7.27001C15.9629 7.16601 15.087 7.38267 14.2758 7.93297C14.5476 7.93297 14.8195 7.92864 15.0913 7.93297C15.5098 7.93731 15.8076 8.25362 15.7903 8.6696C15.773 9.00759 15.4926 9.3109 15.156 9.3109C14.2024 9.31957 13.2445 9.3239 12.2909 9.3109C11.8681 9.30657 11.5704 8.88193 11.6739 8.45295C11.8983 7.53 12.127 6.61138 12.36 5.69276C12.4592 5.30278 12.8432 5.08612 13.21 5.18578C13.5811 5.28545 13.7925 5.65376 13.7019 6.04807C13.6544 6.25606 13.6027 6.46405 13.5379 6.71104C14.2542 6.26906 14.992 6.01341 15.7903 5.90075C15.7903 5.28111 15.7903 4.67448 15.7903 4.07217C15.7903 3.77752 15.7903 3.48287 15.7903 3.18389C15.7903 2.67691 15.5055 2.39959 14.9964 2.39959C12.7052 2.39959 10.4183 2.39959 8.1271 2.39959C6.8197 2.39959 5.5123 2.39959 4.20921 2.39959C3.65691 2.39959 3.38507 2.66825 3.38507 3.21855C3.38507 8.6696 3.38507 14.1207 3.38507 19.5717C3.38507 20.1263 3.65259 20.3993 4.20058 20.3993C7.78191 20.3993 11.3633 20.3993 14.9489 20.3993C15.5314 20.3993 15.7946 20.1393 15.7946 19.5587C15.7946 19.1471 15.7903 18.7354 15.7946 18.3238C15.7989 17.9208 16.0923 17.6261 16.4893 17.6305C16.869 17.6305 17.1711 17.9295 17.1711 18.3151C17.1667 18.9131 17.2056 19.5197 17.1193 20.1047C16.9812 21.0753 16.1096 21.7773 15.1344 21.7773C11.4452 21.7816 7.75603 21.7816 4.06682 21.7773C2.91475 21.7643 2 20.8456 2 19.7017C2 14.164 2 8.62627 2 3.08856C2 1.91429 2.90612 1.00433 4.07113 1.00433C7.75171 1 11.4237 1 15.0999 1C16.2477 1 17.1538 1.91862 17.1581 3.07989C17.1624 3.92918 17.1581 4.7828 17.1581 5.63209C17.1624 5.71009 17.1624 5.78809 17.1624 5.88775Z" fill="#9796A1"/>
<path d="M7.51867 5.84442C6.84555 5.84442 6.17243 5.84442 5.49932 5.84442C5.06351 5.84442 4.76147 5.55843 4.76147 5.15112C4.76147 4.74381 5.06351 4.46216 5.50363 4.46216C6.84555 4.46216 8.18316 4.46216 9.52508 4.46216C9.97383 4.46216 10.2802 4.74814 10.2759 5.16412C10.2716 5.56277 9.9652 5.84442 9.52508 5.84442C8.85196 5.84442 8.18316 5.84442 7.51867 5.84442Z" fill="#9796A1"/>
<path d="M7.50141 9.30658C6.83692 9.30658 6.16812 9.30658 5.50363 9.30658C5.06783 9.30658 4.76147 9.02059 4.76147 8.61761C4.76147 8.2103 5.0592 7.92432 5.49932 7.92432C6.86281 7.92432 8.22199 7.92432 9.58549 7.92432C9.93499 7.92432 10.2327 8.1843 10.2716 8.51362C10.3147 8.8646 10.1119 9.18092 9.77966 9.27625C9.69768 9.29791 9.61138 9.30225 9.52508 9.30225C8.84765 9.30658 8.17453 9.30658 7.50141 9.30658Z" fill="#9796A1"/>
<path d="M7.50577 12.7687C6.84128 12.7687 6.17248 12.7687 5.50799 12.7687C5.06788 12.7687 4.76584 12.4871 4.76152 12.0841C4.75721 11.6725 5.05925 11.3865 5.49505 11.3865C6.84128 11.3865 8.19184 11.3865 9.53807 11.3865C9.97387 11.3865 10.2759 11.6768 10.2759 12.0841C10.2759 12.4871 9.96956 12.7687 9.52944 12.7731C8.85201 12.7687 8.17889 12.7687 7.50577 12.7687Z" fill="#9796A1"/>
<path d="M7.51867 16.2309C6.84555 16.2309 6.17243 16.2309 5.49932 16.2309C5.06351 16.2309 4.76147 15.9449 4.76147 15.5376C4.76147 15.1303 5.0592 14.8486 5.50363 14.8486C6.84555 14.8486 8.18316 14.8486 9.52508 14.8486C9.97814 14.8486 10.2802 15.1346 10.2759 15.5506C10.2716 15.9492 9.9652 16.2309 9.52508 16.2309C8.85196 16.2309 8.18316 16.2266 7.51867 16.2309Z" fill="#9796A1"/>
<path d="M17.1623 12.0755C17.1623 12.5435 17.1623 12.9811 17.1623 13.4188C17.1623 13.8521 16.8689 14.1554 16.4633 14.1511C16.0706 14.1467 15.7858 13.8434 15.7858 13.4188C15.7858 12.7471 15.7858 12.0798 15.7858 11.4082C15.7858 10.9749 16.0663 10.6933 16.4978 10.6933C17.1709 10.6889 17.844 10.6889 18.5171 10.6933C18.9184 10.6933 19.2205 10.9879 19.2248 11.3736C19.2291 11.7765 18.9314 12.0712 18.5171 12.0755C18.077 12.0755 17.6326 12.0755 17.1623 12.0755Z" fill="#9796A1"/>
</svg>
